<?xml version="1.0" encoding="utf-8"?>
<!-- Generator: Adobe Illustrator 21.0.0, SVG Export Plug-In . SVG Version: 6.00 Build 0)  -->
<svg version="1.1" xmlns="http://www.w3.org/2000/svg" xmlns:xlink="http://www.w3.org/1999/xlink" x="0px" y="0px"
	 viewBox="0 0 85 85" style="enable-background:new 0 0 85 85;" xml:space="preserve">
<style type="text/css">
	.st0{display:none;}
	.st1{display:inline;}
	.st2{display:inline;fill:#FFFFFF;}
	.st3{fill:#FFFFFF;}
	.st4{fill:#73489D;}
	.st5{fill:#1C2053;}
	.st6{fill:#5DBA47;}
	.st7{fill:none;stroke:#000000;stroke-linecap:round;stroke-linejoin:round;stroke-miterlimit:10;}
	.st8{fill:#815DA7;}
	.st9{fill:none;stroke:#000000;stroke-width:0.5;stroke-linecap:round;stroke-linejoin:round;}
	.st10{fill:#FFFFFF;stroke:#FFFFFF;stroke-width:0.8736;stroke-miterlimit:10;}
	.st11{fill:none;}
	.st12{fill:#1D75BC;}
	.st13{fill:#5DBA47;stroke:#FFFFFF;stroke-width:0.75;stroke-miterlimit:10;}
	.st14{fill:#AF282F;}
	.st15{fill:#1D76BB;}
	.st16{fill:#74499D;}
	.st17{fill:#5DB847;}
	.st18{fill:#B0282E;}
	.st19{fill:none;stroke:#000000;stroke-miterlimit:10;}
	.st20{fill:none;stroke:#AF282F;stroke-miterlimit:10;}
</style>
<g id="Layer_4">
</g>
<g id="Layer_8">
</g>
<g id="Layer_1">
</g>
<g id="Layer_2">
</g>
<g id="shadow">
</g>
<g id="shadow_copy">
</g>
<g id="Layer_3">
	<g>
		<g>
			<circle class="st3" cx="42.5" cy="42.5" r="42.1"/>
		</g>
		<g id="l2AbrH.tif_3_">
			<g>
				<g>
					<path class="st12" d="M61.7,38.4c-0.9,0-1.8,0-2.9,0c0,7.7,0,15.3,0,23c-3.7,0-7.2,0-10.9,0c0-4.8,0-9.5,0-14.3
						c-3.6,0-7,0-10.7,0c0,4.7,0,9.5,0,14.3c-3.7,0-7.2,0-10.9,0c0-0.7-0.1-1.3-0.1-1.9c0-5.9,0-11.8,0-17.8c0-3.1,0-3.1-3-3.5
						c-0.5-1.8-0.1-3,1.7-4c5.5-3.2,10.8-6.6,16.1-10c1-0.6,1.7-0.7,2.7,0c5.4,3.4,10.8,6.9,16.3,10.1
						C61.8,35.2,62.3,36.4,61.7,38.4z"/>
				</g>
			</g>
		</g>
		<g id="CiqzEQ.tif_4_">
			<g>
				<g>
					<path class="st14" d="M38.3,34.5c0.2,0,0.4,0,0.6,0c0,0,0.1,0,0.1,0c1.1,0.1,2.1,0.5,3,1.2c0.2,0.2,0.4,0.4,0.7,0.6
						c0,0,0-0.1,0.1-0.1c0.7-0.8,1.6-1.3,2.7-1.6c0.3-0.1,0.6-0.1,0.9-0.2c0.2,0,0.4,0,0.6,0c0.2,0,0.3,0,0.5,0.1
						c2,0.3,3.5,1.7,4,3.6c0.1,0.2,0.1,0.5,0.1,0.7c0,0.3,0,0.6,0,0.9c-0.1,0.3-0.1,0.7-0.2,1c-0.3,1.2-0.9,2.1-1.7,3.1
						c-0.9,1.1-2,2.1-3.1,3.1c-1.3,1.2-2.6,2.3-3.8,3.5c0,0,0,0-0.1,0c0,0-0.1-0.1-0.1-0.1c-0.4-0.4-0.7-0.7-1.1-1.1
						c-1-0.9-1.9-1.7-2.9-2.6c-1.1-1-2.1-2-3-3.2c-0.7-0.9-1.2-1.8-1.5-2.9c-0.1-0.3-0.1-0.6-0.2-0.8c0-0.3,0-0.6,0-0.9
						c0-0.1,0.1-0.3,0.1-0.4c0.3-1.8,1.8-3.4,3.6-3.8C37.7,34.6,38,34.6,38.3,34.5z"/>
				</g>
			</g>
		</g>
	</g>
</g>
<g id="extra_faces">
</g>
</svg>
