<?xml version="1.0" encoding="utf-8"?>
<!-- Generator: Adobe Illustrator 21.0.0, SVG Export Plug-In . SVG Version: 6.00 Build 0)  -->
<svg version="1.1" xmlns="http://www.w3.org/2000/svg" xmlns:xlink="http://www.w3.org/1999/xlink" x="0px" y="0px"
	 viewBox="0 0 85 85" style="enable-background:new 0 0 85 85;" xml:space="preserve">
<style type="text/css">
	.st0{display:none;}
	.st1{display:inline;}
	.st2{display:inline;fill:#FFFFFF;}
	.st3{fill:#FFFFFF;}
	.st4{fill:#73489D;}
	.st5{fill:#1C2053;}
	.st6{fill:#5DBA47;}
	.st7{fill:none;stroke:#000000;stroke-linecap:round;stroke-linejoin:round;stroke-miterlimit:10;}
	.st8{fill:#815DA7;}
	.st9{fill:none;stroke:#000000;stroke-width:0.5;stroke-linecap:round;stroke-linejoin:round;}
	.st10{fill:#FFFFFF;stroke:#FFFFFF;stroke-width:0.8736;stroke-miterlimit:10;}
	.st11{fill:none;}
	.st12{fill:#1D75BC;}
	.st13{fill:#5DBA47;stroke:#FFFFFF;stroke-width:0.75;stroke-miterlimit:10;}
	.st14{fill:#AF282F;}
	.st15{fill:#1D76BB;}
	.st16{fill:#74499D;}
	.st17{fill:#5DB847;}
	.st18{fill:#B0282E;}
	.st19{fill:none;stroke:#000000;stroke-miterlimit:10;}
	.st20{fill:none;stroke:#AF282F;stroke-miterlimit:10;}
</style>
<g id="Layer_4">
</g>
<g id="Layer_8">
</g>
<g id="Layer_1">
</g>
<g id="Layer_2">
</g>
<g id="shadow">
</g>
<g id="shadow_copy">
</g>
<g id="Layer_3">
	<g>
		<g>
			<circle class="st3" cx="42.5" cy="42.5" r="42.1"/>
			<path class="st3" d="M42.5,85C19.1,85,0,66,0,42.5C0,19.1,19.1,0,42.5,0C66,0,85,19.1,85,42.5C85,66,66,85,42.5,85z M42.5,0.9
				c-23,0-41.6,18.7-41.6,41.6s18.7,41.6,41.6,41.6c23,0,41.6-18.7,41.6-41.6S65.5,0.9,42.5,0.9z"/>
		</g>
		<g>
			<path class="st6" d="M62.9,39.2c0,3.4-2.7,6-6.1,5.9c-3.3,0-5.9-2.7-5.9-6c0-3.4,2.7-6,6.1-6C60.3,33.1,63,35.8,62.9,39.2z"/>
			<path class="st6" d="M56.9,45.6C56.9,45.6,56.9,45.6,56.9,45.6c-3.7,0-6.5-2.9-6.5-6.5c0-3.6,2.9-6.5,6.5-6.5c0,0,0,0,0,0
				c1.7,0,3.4,0.7,4.6,1.9c1.2,1.2,1.9,2.9,1.9,4.7l0,0c0,1.7-0.7,3.4-1.9,4.6C60.3,44.9,58.7,45.6,56.9,45.6z M57,33.6
				c-3.1,0-5.5,2.4-5.5,5.5c0,3.1,2.4,5.5,5.4,5.5c1.5,0,3-0.5,4-1.6c1-1,1.6-2.4,1.6-3.8c0-1.5-0.6-2.9-1.6-4
				C59.8,34.2,58.5,33.6,57,33.6C57,33.6,57,33.6,57,33.6z"/>
		</g>
		<g>
			<path class="st8" d="M33.4,39.1c0,3.4-2.6,6-6,6c-3.3,0-6-2.7-6-5.9c0-3.4,2.7-6.1,6-6.1C30.7,33.1,33.4,35.7,33.4,39.1z"/>
			<path class="st8" d="M27.4,45.6C27.4,45.6,27.4,45.6,27.4,45.6c-3.6,0-6.5-2.9-6.5-6.4c0-1.8,0.7-3.4,1.9-4.6
				c1.2-1.2,2.9-1.9,4.6-1.9c0,0,0,0,0,0c3.6,0,6.5,2.8,6.5,6.5l0,0c0,1.8-0.7,3.4-1.9,4.6C30.8,44.9,29.1,45.6,27.4,45.6z
				 M27.4,33.6L27.4,33.6c-1.5,0-2.9,0.6-3.9,1.6c-1,1-1.6,2.4-1.6,3.9c0,3,2.5,5.4,5.5,5.4c0,0,0,0,0,0c1.5,0,2.9-0.6,3.9-1.6
				c1-1,1.6-2.4,1.6-3.9l0,0C32.9,36,30.4,33.6,27.4,33.6z"/>
		</g>
		<g>
			<path class="st5" d="M27.1,38.3c-0.3,0-0.5-0.2-0.5-0.5c0-0.3-0.2-0.5-0.5-0.5l0,0c-0.3,0-0.5,0.2-0.5,0.5c0,0.3-0.2,0.5-0.5,0.5
				c-0.3,0-0.5-0.2-0.5-0.5c0-0.8,0.7-1.4,1.5-1.4h0c0.8,0,1.5,0.7,1.5,1.5C27.6,38.1,27.4,38.3,27.1,38.3
				C27.1,38.3,27.1,38.3,27.1,38.3z"/>
		</g>
		<g>
			<path class="st5" d="M27.8,42.1L27.8,42.1c-0.6,0-1.1-0.2-1.6-0.7c-0.4-0.4-0.6-1-0.6-1.6c0-0.3,0.2-0.5,0.5-0.5h0l3.4,0
				c0.3,0,0.5,0.2,0.5,0.5c0,0.6-0.2,1.1-0.6,1.6C29,41.9,28.4,42.1,27.8,42.1z M26.8,40.4c0.1,0.1,0.1,0.2,0.2,0.4
				c0.2,0.2,0.5,0.4,0.8,0.4h0c0.3,0,0.6-0.1,0.8-0.4c0.1-0.1,0.2-0.2,0.2-0.4L26.8,40.4z"/>
		</g>
		<g>
			<path class="st5" d="M30.8,38.4c-0.3,0-0.5-0.2-0.5-0.5c0-0.3-0.2-0.5-0.5-0.5h0c-0.3,0-0.5,0.2-0.5,0.5c0,0.3-0.2,0.5-0.5,0.5
				c-0.3,0-0.5-0.2-0.5-0.5c0-0.8,0.7-1.4,1.5-1.4h0c0.8,0,1.5,0.7,1.5,1.5C31.3,38.1,31.1,38.3,30.8,38.4
				C30.8,38.4,30.8,38.4,30.8,38.4z"/>
		</g>
		<g>
			<path class="st5" d="M55.4,38.3c-0.3,0-0.5-0.2-0.5-0.5c0-0.3-0.2-0.5-0.5-0.5l0,0c-0.3,0-0.5,0.2-0.5,0.5c0,0.3-0.2,0.5-0.5,0.5
				h0c-0.3,0-0.5-0.2-0.5-0.5c0-0.8,0.7-1.4,1.5-1.4h0c0.8,0,1.5,0.7,1.5,1.5C55.9,38.1,55.7,38.3,55.4,38.3L55.4,38.3z"/>
		</g>
		<g>
			<path class="st5" d="M56.1,42.1L56.1,42.1c-0.6,0-1.1-0.2-1.6-0.7c-0.4-0.4-0.6-1-0.6-1.6c0-0.3,0.2-0.5,0.5-0.5h0l3.4,0
				c0.3,0,0.5,0.2,0.5,0.5c0,0.6-0.2,1.1-0.6,1.6C57.2,41.9,56.7,42.1,56.1,42.1z M55,40.4c0.1,0.1,0.1,0.2,0.2,0.4
				c0.2,0.2,0.5,0.4,0.8,0.4h0c0.3,0,0.6-0.1,0.8-0.3c0.1-0.1,0.2-0.2,0.2-0.4L55,40.4z"/>
		</g>
		<g>
			<path class="st5" d="M59.1,38.4c-0.3,0-0.5-0.2-0.5-0.5c0-0.3-0.2-0.5-0.5-0.5h0c-0.3,0-0.5,0.2-0.5,0.5c0,0.3-0.2,0.5-0.5,0.5
				c0,0,0,0,0,0c-0.3,0-0.5-0.2-0.5-0.5c0-0.8,0.7-1.4,1.5-1.4h0c0.8,0,1.5,0.7,1.5,1.5C59.6,38.1,59.4,38.3,59.1,38.4
				C59.1,38.4,59.1,38.4,59.1,38.4z"/>
		</g>
		<g>
			<path class="st8" d="M42.2,40.1c-0.5,0.8-0.9,1.5-1.3,2.2c-2.1,3.8-4.2,7.7-6.2,11.6c-0.2,0.4-0.3,0.8-0.3,1.3c0,1.6,0,3.2,0,4.9
				c-1.4,0.2-2.8,0.5-4.2,0.6c-3.1,0.2-6.1,0.2-9.1-0.5c-0.6-0.1-0.8-0.4-0.8-1c0-0.1,0-0.2,0-0.3c0.5-3.3-0.7-6.2-2.3-9.1
				c-2.7-4.6-5.1-9.3-7.6-13.9c-0.8-1.5-0.4-3,1.2-3.8c1.5-0.9,3-0.5,3.8,1.1c2.4,4.3,4.7,8.6,7.1,12.9c0.3,0.6,0.7,0.9,1.4,0.9
				c2.6,0,5.3,0,8.1,0c1.6-2.9,3.2-6,4.9-9c0.9-1.6,1.7-3.1,2.6-4.7c0.6-1.1,1.5-1.5,2.7-1.5L42.2,40.1z"/>
			<path class="st8" d="M27.2,61.3c-2.3,0-4.3-0.2-6.3-0.7c-0.3-0.1-1.3-0.3-1.1-1.5c0-0.1,0-0.2,0-0.3c0.5-3.4-0.9-6.3-2.3-8.7
				c-1.9-3.2-3.7-6.5-5.4-9.8c-0.7-1.4-1.5-2.8-2.2-4.2c-1-1.8-0.4-3.5,1.4-4.5c1.8-1,3.5-0.5,4.5,1.3c2.4,4.3,4.8,8.6,7.1,12.9
				c0.3,0.5,0.5,0.6,1,0.6c1.9,0,3.8,0,5.8,0l2,0l4.7-8.7c0.3-0.6,0.6-1.2,1-1.7c0.5-1,1.1-2,1.6-3c0.6-1.2,1.7-1.8,3.1-1.8l0.5,0
				l0.1,9.1l-0.5,0.9c-0.3,0.5-0.6,1-0.8,1.4c-2.1,3.8-4.2,7.7-6.2,11.6c-0.1,0.3-0.2,0.6-0.2,1c0,1.1,0,2.3,0,3.5l0,1.9l-0.4,0.1
				c-0.5,0.1-0.9,0.2-1.3,0.2c-1,0.2-2,0.4-3,0.4C29.1,61.3,28.1,61.3,27.2,61.3z M13,32.1c-0.4,0-0.8,0.1-1.3,0.4
				c-1.3,0.7-1.6,1.9-1,3.2c0.8,1.4,1.5,2.8,2.2,4.2c1.7,3.2,3.5,6.5,5.4,9.7c1.5,2.5,2.9,5.6,2.4,9.4c0,0.2,0,0.2,0,0.3
				c0,0.3,0,0.3,0.4,0.4c2.6,0.6,5.5,0.8,9,0.5c0.9-0.1,1.9-0.2,2.8-0.4c0.3-0.1,0.6-0.1,0.9-0.2l0-1c0-1.2,0-2.4,0-3.5
				c0-0.4,0.1-1,0.3-1.5c2.1-3.9,4.1-7.7,6.2-11.6c0.3-0.5,0.5-1,0.8-1.5l0.4-0.7l-0.1-7.8c-0.8,0.1-1.4,0.5-1.8,1.2
				c-0.5,1-1.1,2-1.6,3c-0.3,0.6-0.6,1.2-1,1.7l-5,9.2l-2.6,0c-2,0-3.9,0-5.8,0c-0.9,0-1.5-0.3-1.9-1.1c-2.3-4.3-4.7-8.5-7.1-12.9
				C14.4,32.5,13.8,32.1,13,32.1z"/>
		</g>
		<g>
			<path class="st6" d="M42.1,31.6c1.2,0,2.2,0.4,2.8,1.5c2.4,4.3,4.8,8.6,7.1,12.9c0.3,0.6,0.6,0.8,1.3,0.8c2.4,0,4.8,0,7.2,0
				c0.7,0,1.1-0.2,1.4-0.8c2.3-4.2,4.6-8.4,7-12.7c1-1.9,2.5-2.3,4.2-1.2c1.4,0.9,1.7,2.2,0.9,3.7c-3.1,5.7-6.2,11.4-9.3,17.2
				c-0.4,0.8-0.6,1.9-0.7,2.8c-0.1,0.9-0.1,1.9,0,2.9c0.1,1.1-0.4,1.4-1.3,1.5C58.4,61,54.2,61,49.9,60c0-0.4-0.1-0.6,0-0.9
				c0.4-3.4-0.6-6.4-2.4-9.3c-1.9-3.1-2.5-6.4-4.3-9.8L42.1,31.6z"/>
			<path class="st6" d="M56.9,61.3c-2.4,0-4.8-0.3-7.1-0.9l-0.4-0.1l0-0.4c0-0.1,0-0.2,0-0.3c0-0.2,0-0.4,0-0.6
				c0.4-3-0.4-5.8-2.3-8.9c-1-1.7-1.7-3.4-2.4-5.2c-0.6-1.5-1.1-3-2-4.6l-0.1-0.2l-1.2-9.1l0.6,0c1.5,0,2.6,0.6,3.3,1.8
				c1,1.9,2,3.7,3.1,5.6c1.4,2.5,2.7,4.9,4.1,7.4c0.2,0.4,0.4,0.5,0.8,0.5c2.7,0,5,0,7.2,0c0.5,0,0.7-0.1,0.9-0.5
				c1.6-2.9,3.2-5.8,4.8-8.8l2.2-3.9c0.6-1.1,1.3-1.7,2.2-2c0.8-0.2,1.7,0,2.7,0.6c1.6,1,2,2.6,1.1,4.4l-2.6,4.8
				c-2.2,4.1-4.5,8.3-6.7,12.4c-0.4,0.8-0.5,1.7-0.7,2.6c-0.1,0.9-0.1,1.8,0,2.7c0.2,1.6-0.8,1.9-1.7,2.1
				C60.8,61.1,58.8,61.3,56.9,61.3z M50.4,59.6c3.9,0.9,7.9,1,12.2,0.2c0.8-0.1,1-0.3,0.9-1c-0.1-1-0.1-2,0-3c0.1-1,0.3-2.1,0.8-3
				c2.2-4.2,4.5-8.4,6.7-12.4l2.6-4.8c0.7-1.3,0.4-2.3-0.7-3c-0.7-0.4-1.4-0.6-1.9-0.5c-0.6,0.2-1.1,0.6-1.6,1.5l-2.2,3.9
				c-1.6,2.9-3.2,5.8-4.8,8.8c-0.4,0.8-1,1.1-1.8,1.1c-2.1,0-4.5,0-7.2,0c-0.8,0-1.3-0.3-1.7-1c-1.3-2.5-2.7-4.9-4-7.4
				c-1-1.9-2.1-3.7-3.1-5.6c-0.4-0.7-1-1.1-1.8-1.2l1,7.8c0.8,1.6,1.4,3.1,2,4.6c0.7,1.8,1.3,3.4,2.3,5c2,3.3,2.8,6.4,2.4,9.6
				C50.4,59.3,50.4,59.4,50.4,59.6z"/>
		</g>
	</g>
</g>
<g id="extra_faces">
</g>
</svg>
