<?xml version="1.0" encoding="utf-8"?>
<!-- Generator: Adobe Illustrator 21.0.0, SVG Export Plug-In . SVG Version: 6.00 Build 0)  -->
<svg version="1.1" xmlns="http://www.w3.org/2000/svg" xmlns:xlink="http://www.w3.org/1999/xlink" x="0px" y="0px"
	 viewBox="0 0 85 85" style="enable-background:new 0 0 85 85;" xml:space="preserve">
<style type="text/css">
	.st0{display:none;}
	.st1{display:inline;}
	.st2{display:inline;fill:#FFFFFF;}
	.st3{fill:#FFFFFF;}
	.st4{fill:#73489D;}
	.st5{fill:#1C2053;}
	.st6{fill:#5DBA47;}
	.st7{fill:none;stroke:#000000;stroke-linecap:round;stroke-linejoin:round;stroke-miterlimit:10;}
	.st8{fill:#815DA7;}
	.st9{fill:none;stroke:#000000;stroke-width:0.5;stroke-linecap:round;stroke-linejoin:round;}
	.st10{fill:#FFFFFF;stroke:#FFFFFF;stroke-width:0.8736;stroke-miterlimit:10;}
	.st11{fill:none;}
	.st12{fill:#1D75BC;}
	.st13{fill:#5DBA47;stroke:#FFFFFF;stroke-width:0.75;stroke-miterlimit:10;}
	.st14{fill:#AF282F;}
	.st15{fill:#1D76BB;}
	.st16{fill:#74499D;}
	.st17{fill:#5DB847;}
	.st18{fill:#B0282E;}
	.st19{fill:none;stroke:#000000;stroke-miterlimit:10;}
	.st20{fill:none;stroke:#AF282F;stroke-miterlimit:10;}
</style>
<g id="Layer_4">
</g>
<g id="Layer_8">
</g>
<g id="Layer_1">
</g>
<g id="Layer_2">
</g>
<g id="shadow">
</g>
<g id="shadow_copy">
</g>
<g id="Layer_3">
	<g>
		<circle class="st3" cx="42.5" cy="42.5" r="42.1"/>
		<path class="st3" d="M42.5,85C19.1,85,0,66,0,42.5C0,19.1,19.1,0,42.5,0S85,19.1,85,42.5C85,66,66,85,42.5,85z M42.5,0.9
			c-23,0-41.6,18.7-41.6,41.6s18.7,41.6,41.6,41.6s41.6-18.7,41.6-41.6S65.5,0.9,42.5,0.9z"/>
	</g>
	<g>
		<g>
			<path class="st12" d="M14.6,40.9c-0.3,6.8,1.3,12.9,5.1,18.4c1.7,2.5,3.9,4.6,6.3,6.4c0.8,0.6,1.2,0.5,1.8-0.3c1.4-2,3-4,4.4-6
				c0.8-1.1,0.8-1.2-0.3-2.1c-4.5-3.5-7-8.1-7.1-13.9c0-0.3,0-0.5,0.1-0.9c1.3,0.4,2.6,0.8,3.8,1.1c0.4,0.1,0.9,0,1.3-0.1
				c-0.1-0.4,0-1-0.2-1.3c-2.3-4.3-4.6-8.7-6.9-13c-0.6-1.1-0.9-1.2-1.9-0.3c-3.8,3.3-7.5,6.6-11.3,10c-0.3,0.3-0.4,0.8-0.6,1.2
				c0.4,0.2,0.8,0.5,1.2,0.5C11.8,40.8,13.2,40.8,14.6,40.9z"/>
			<path class="st12" d="M26.9,66.6c-0.5,0-0.9-0.3-1.2-0.5c-2.5-1.9-4.7-4.1-6.4-6.5c-3.8-5.4-5.5-11.3-5.2-18.2l-0.7,0
				c-1-0.1-2-0.1-3-0.2c-0.4,0-0.7-0.2-1-0.4c-0.1-0.1-0.2-0.1-0.3-0.2l-0.5-0.2l0.2-0.5c0.1-0.1,0.1-0.2,0.2-0.4
				c0.1-0.3,0.3-0.7,0.6-1c3.5-3.2,7.1-6.3,10.7-9.4l0.6-0.6c0.5-0.4,1-0.8,1.5-0.7c0.5,0.1,0.9,0.6,1.1,1.2c2.3,4.4,4.6,8.7,6.9,13
				c0.2,0.4,0.2,0.8,0.2,1.1c0,0.1,0,0.3,0,0.4l0.1,0.5l-0.5,0c-0.1,0-0.3,0-0.4,0c-0.3,0-0.7,0.1-1.1,0c-0.9-0.2-1.8-0.5-2.8-0.7
				l-0.5-0.1c0,0.1,0,0.1,0,0.2c0.1,5.5,2.4,10,6.9,13.5c1.4,1.1,1.4,1.4,0.4,2.8c-0.5,0.7-1,1.4-1.6,2.1c-1,1.3-1.9,2.6-2.9,3.9
				c-0.2,0.3-0.6,0.8-1.1,0.9C27,66.6,27,66.6,26.9,66.6z M9.9,39.9c0.2,0.1,0.4,0.2,0.6,0.2c1,0.1,2,0.2,3,0.2l1.7,0.1l0,0.5
				c-0.3,6.9,1.3,12.8,5,18.1c1.7,2.3,3.7,4.5,6.2,6.3c0.3,0.2,0.5,0.3,0.6,0.3c0.1,0,0.2-0.1,0.5-0.4c0.9-1.3,1.9-2.7,2.9-3.9
				c0.5-0.7,1-1.4,1.6-2.1c0.2-0.2,0.5-0.7,0.5-0.8c0-0.1-0.4-0.4-0.7-0.6c-4.7-3.7-7.2-8.5-7.3-14.3c0-0.2,0-0.4,0-0.6l0.1-0.9
				l1.7,0.5c0.9,0.3,1.8,0.5,2.7,0.7c0.2,0,0.4,0,0.7,0c0-0.2,0-0.5-0.1-0.6c-2.3-4.3-4.6-8.6-6.9-12.9c-0.3-0.6-0.5-0.7-0.5-0.7
				c0,0-0.2,0.1-0.7,0.5l-0.6,0.6c-3.6,3.1-7.1,6.3-10.7,9.4C10.1,39.4,10,39.7,9.9,39.9z"/>
		</g>
		<g>
			<path class="st6" d="M50.8,58.7c-0.4-1.6-0.7-2.9-1.1-4.2c-0.1-0.4-0.5-0.7-0.8-1.1c-0.3,0.3-0.7,0.4-1,0.8
				c-2.6,4.2-5.2,8.4-7.8,12.6c-0.6,1-0.5,1.4,0.6,1.8c4.8,1.6,9.6,3.2,14.3,4.8c0.4,0.1,0.9,0,1.3,0c-0.1-0.5,0-1-0.2-1.4
				c-0.6-1.2-1.2-2.4-1.8-3.6c1.4-0.9,2.8-1.6,4.1-2.6c6.7-4.9,10.5-11.5,11.6-19.6c0.1-0.9,0-1.4-1.1-1.5c-2.7-0.2-5.3-0.6-8-0.9
				c-0.8-0.1-1,0.3-1.1,1c-0.5,4.5-2.4,8.3-5.7,11.3C53.3,56.9,52.1,57.7,50.8,58.7z"/>
			<path class="st6" d="M55.6,73.9c-0.2,0-0.4,0-0.6-0.1c-4.8-1.6-9.6-3.2-14.3-4.8c-0.6-0.2-1.1-0.4-1.3-0.9c-0.2-0.5,0-1,0.4-1.6
				c2.6-4.2,5.2-8.4,7.8-12.6c0.2-0.3,0.5-0.5,0.8-0.7c0.1-0.1,0.2-0.1,0.3-0.2l0.4-0.3l0.3,0.4c0.1,0.1,0.2,0.2,0.2,0.3
				c0.2,0.3,0.5,0.6,0.6,0.9c0.3,0.9,0.5,1.9,0.8,2.9c0,0.2,0.1,0.4,0.1,0.6c0.2-0.2,0.4-0.3,0.6-0.5c0.8-0.6,1.6-1.2,2.3-1.8
				c3.1-2.8,5-6.6,5.5-11c0.1-0.5,0.2-0.9,0.5-1.2c0.3-0.2,0.6-0.3,1.1-0.2l1.6,0.2c2.1,0.3,4.2,0.5,6.3,0.7c0.6,0.1,1,0.2,1.3,0.6
				c0.4,0.4,0.3,1,0.3,1.5c-1.2,8.4-5.1,15.1-11.8,20c-0.9,0.7-1.9,1.2-2.8,1.8c-0.3,0.2-0.6,0.4-0.9,0.6c0.1,0.2,0.2,0.4,0.3,0.6
				c0.4,0.9,0.9,1.7,1.3,2.6c0.2,0.4,0.2,0.8,0.2,1.1c0,0.1,0,0.3,0,0.4l0.1,0.6l-0.6,0c-0.1,0-0.3,0-0.4,0
				C56,73.9,55.8,73.9,55.6,73.9z M48.9,54.1c-0.2,0.1-0.4,0.2-0.4,0.4c-2.6,4.2-5.2,8.4-7.8,12.6c-0.3,0.5-0.3,0.7-0.3,0.7
				c0,0,0.1,0.1,0.7,0.3c4.8,1.6,9.6,3.2,14.3,4.8c0.2,0.1,0.4,0,0.7,0c0-0.3,0-0.6-0.1-0.7c-0.4-0.9-0.8-1.7-1.3-2.6
				c-0.2-0.3-0.4-0.7-0.5-1l-0.2-0.4l0.4-0.2c0.4-0.3,0.9-0.5,1.3-0.8c1-0.6,1.9-1.1,2.7-1.7c6.5-4.7,10.3-11.2,11.4-19.3
				c0.1-0.4,0-0.7-0.1-0.8c-0.1-0.1-0.3-0.2-0.6-0.2c-2.1-0.2-4.3-0.5-6.4-0.7l-1.6-0.2c-0.3,0-0.3,0-0.3,0c0,0-0.1,0.2-0.2,0.6
				c-0.6,4.7-2.5,8.6-5.9,11.6c-0.7,0.7-1.5,1.3-2.4,1.9c-0.4,0.3-0.8,0.6-1.2,0.9l-0.6,0.5l-0.2-0.7c-0.1-0.5-0.2-0.9-0.3-1.3
				c-0.3-1-0.5-1.9-0.8-2.8C49.2,54.5,49.1,54.3,48.9,54.1z"/>
		</g>
		<g>
			<path class="st14" d="M58.4,20.1c-2.3-1.2-4.4-2.4-6.7-3.3c-6.8-2.6-13.6-2.5-20.4,0.1c-1,0.4-1.2,0.8-0.8,1.8
				c1,2.3,1.9,4.7,2.8,7c0.3,0.9,0.8,1.1,1.7,0.7c5.4-2.1,10.7-1.7,15.7,1.2c0.2,0.1,0.4,0.3,0.7,0.5c-1.1,1-2.1,1.9-3.1,2.9
				c-0.3,0.3-0.5,0.8-0.5,1.1c0,0.2,0.6,0.5,1,0.5c4.1,0.3,8.1,0.5,12.2,0.8c1,0.1,1.9,0.1,2.9,0.2c0.9,0.1,1.3-0.3,1.1-1.2
				c-0.6-3.7-1.3-7.4-1.9-11.1c-0.2-1.4-0.4-2.7-0.7-4.1c-0.1-0.4-0.4-0.7-0.6-1.1c-0.4,0.3-0.8,0.4-1.1,0.8
				C59.9,17.9,59.1,19.1,58.4,20.1z"/>
			<path class="st14" d="M64.1,34.1c-0.1,0-0.2,0-0.3,0c-0.7-0.1-1.5-0.1-2.2-0.2l-3.5-0.2c-3.1-0.2-6.2-0.4-9.2-0.6
				c-0.2,0-1.3-0.2-1.4-0.9c-0.1-0.5,0.2-1.2,0.6-1.5c0.7-0.7,1.4-1.4,2.2-2.1l0.4-0.4c-0.1,0-0.1-0.1-0.2-0.1
				c-4.9-2.8-10-3.2-15.3-1.1c-0.4,0.2-1,0.3-1.5,0.1c-0.5-0.2-0.7-0.7-0.9-1.1c-0.8-2.1-1.7-4.5-2.8-7c-0.2-0.4-0.4-1-0.1-1.5
				c0.2-0.5,0.8-0.8,1.2-1c7-2.7,14-2.7,20.7-0.1c1.6,0.6,3.2,1.4,4.7,2.2c0.6,0.3,1.2,0.6,1.7,0.9l0.3-0.5c0.6-0.8,1.1-1.6,1.8-2.5
				c0.2-0.3,0.6-0.5,0.8-0.7c0.1-0.1,0.2-0.1,0.3-0.2l0.4-0.3l0.3,0.5c0.1,0.1,0.1,0.2,0.2,0.3c0.2,0.3,0.4,0.6,0.5,0.9
				c0.2,1.1,0.4,2.3,0.6,3.4l0.8,4.9c0.4,2.3,0.8,4.6,1.2,6.9c0.1,0.6,0,1.1-0.3,1.4C65,34,64.6,34.1,64.1,34.1z M48.4,31.9
				c0.1,0.1,0.3,0.1,0.5,0.2c3.1,0.2,6.2,0.4,9.2,0.6l3.5,0.2c0.8,0,1.5,0.1,2.3,0.2c0.3,0,0.5,0,0.6-0.1c0-0.1,0.1-0.2,0-0.6
				c-0.4-2.3-0.8-4.6-1.2-6.9l-0.8-4.9c-0.2-1.1-0.4-2.2-0.6-3.4c0-0.1-0.1-0.3-0.3-0.5c-0.2,0.1-0.4,0.3-0.5,0.4
				c-0.6,0.8-1.2,1.6-1.7,2.4l-0.8,1.2l-0.4-0.2c-0.7-0.4-1.4-0.7-2.2-1.1c-1.5-0.8-3-1.6-4.5-2.2c-6.5-2.5-13.3-2.5-20,0.1
				c-0.4,0.1-0.6,0.3-0.7,0.4c-0.1,0.2,0,0.5,0.1,0.7c1.1,2.5,2,5,2.8,7c0.1,0.3,0.2,0.5,0.4,0.6c0.1,0,0.3,0,0.7-0.1
				c5.5-2.2,11-1.8,16.1,1.2c0.2,0.1,0.3,0.2,0.5,0.3l0.8,0.6l-1.4,1.2c-0.8,0.7-1.5,1.4-2.2,2.1C48.6,31.5,48.5,31.8,48.4,31.9z"/>
		</g>
	</g>
	<g id="_x31_tqAXJ.tif_9_">
		<g>
			<g>
				<path class="st4" d="M35.5,44c0.1-0.1,0.2-0.3,0.4-0.4c0.5-0.4,1-0.9,1.5-1.3c0.3-0.3,0.6-0.3,0.9,0c1.2,1.2,2.4,2.5,3.6,3.7
					c0.3,0.3,0.6,0.3,1,0c2.8-2.8,5.6-5.6,8.4-8.4c0.4-0.4,0.6-0.4,1,0c0.5,0.5,1,1,1.5,1.5c0.3,0.3,0.3,0.6,0,1
					C50,43.7,46.4,47.3,42.7,51c-0.1,0.1-0.2,0.2-0.4,0.2c-0.1,0-0.1,0-0.2,0c-0.2-0.1-0.3-0.2-0.5-0.3c-2-2-3.9-4-5.9-6.1
					c-0.1-0.1-0.3-0.3-0.4-0.5C35.5,44.2,35.5,44.1,35.5,44z"/>
				<path class="st4" d="M42.5,51.7H42l-0.3-0.2c-0.1-0.1-0.3-0.2-0.4-0.3c-2-2-3.9-4-5.9-6.1c-0.1-0.1-0.2-0.2-0.3-0.4L35,44.5
					v-0.7l0.2-0.3c0.1-0.1,0.2-0.2,0.3-0.3c0.4-0.4,0.8-0.7,1.2-1.1l0.3-0.3c0.5-0.4,1.1-0.4,1.6,0.1l3.6,3.7
					c0.1,0.1,0.1,0.1,0.1,0.1c0,0,0,0,0.1-0.1l8.4-8.4c0.3-0.3,0.6-0.4,0.8-0.4c0,0,0,0,0,0c0.3,0,0.6,0.1,0.8,0.4l1.5,1.5
					c0.5,0.5,0.5,1.2,0,1.7l-1.1,1.1c-3.3,3.2-6.5,6.5-9.8,9.7c-0.1,0.1-0.2,0.2-0.4,0.3L42.5,51.7z M36,44.2L36,44.2
					c0.1,0.1,0.2,0.2,0.2,0.3c2,2,3.9,4.1,5.9,6.1c0,0,0.1,0.1,0.2,0.1c0,0,0.1,0,0.1-0.1c3.3-3.2,6.5-6.5,9.8-9.7l1.1-1.1
					c0.1-0.1,0.1-0.1,0.1-0.1l0,0c0,0,0,0-0.1-0.1L51.8,38c-0.1-0.1-0.1-0.1-0.1-0.1c0,0-0.1,0-0.1,0.1l-8.4,8.4
					c-0.3,0.3-0.5,0.4-0.8,0.4c-0.3,0-0.6-0.1-0.8-0.4l-3.6-3.7c-0.1-0.1-0.1-0.1-0.1-0.1c0,0,0,0-0.1,0.1l-0.3,0.3
					c-0.4,0.4-0.8,0.7-1.2,1.1C36.1,44,36,44.1,36,44.2z"/>
			</g>
		</g>
	</g>
</g>
<g id="extra_faces">
</g>
</svg>
