<?xml version="1.0" encoding="utf-8"?>
<!-- Generator: Adobe Illustrator 21.0.0, SVG Export Plug-In . SVG Version: 6.00 Build 0)  -->
<svg version="1.1" xmlns="http://www.w3.org/2000/svg" xmlns:xlink="http://www.w3.org/1999/xlink" x="0px" y="0px"
	 viewBox="0 0 85 85" style="enable-background:new 0 0 85 85;" xml:space="preserve">
<style type="text/css">
	.st0{display:none;}
	.st1{display:inline;}
	.st2{display:inline;fill:#FFFFFF;}
	.st3{fill:#FFFFFF;}
	.st4{fill:#73489D;}
	.st5{fill:#1C2053;}
	.st6{fill:#5DBA47;}
	.st7{fill:none;stroke:#000000;stroke-linecap:round;stroke-linejoin:round;stroke-miterlimit:10;}
	.st8{fill:#815DA7;}
	.st9{fill:none;stroke:#000000;stroke-width:0.5;stroke-linecap:round;stroke-linejoin:round;}
	.st10{fill:#FFFFFF;stroke:#FFFFFF;stroke-width:0.8736;stroke-miterlimit:10;}
	.st11{fill:none;}
	.st12{fill:#1D75BC;}
	.st13{fill:#5DBA47;stroke:#FFFFFF;stroke-width:0.75;stroke-miterlimit:10;}
	.st14{fill:#AF282F;}
	.st15{fill:#1D76BB;}
	.st16{fill:#74499D;}
	.st17{fill:#5DB847;}
	.st18{fill:#B0282E;}
	.st19{fill:none;stroke:#000000;stroke-miterlimit:10;}
	.st20{fill:none;stroke:#AF282F;stroke-miterlimit:10;}
</style>
<g id="Layer_4">
</g>
<g id="Layer_8">
</g>
<g id="Layer_1">
</g>
<g id="Layer_2">
</g>
<g id="shadow">
</g>
<g id="shadow_copy">
</g>
<g id="Layer_3">
	<g>
		<g>
			<circle class="st3" cx="42.5" cy="42.5" r="42.1"/>
			<path class="st3" d="M42.5,85C19.1,85,0,66,0,42.5S19.1,0,42.5,0S85,19.1,85,42.5S66,85,42.5,85z M42.5,0.9
				c-23,0-41.6,18.7-41.6,41.6s18.7,41.6,41.6,41.6s41.6-18.7,41.6-41.6S65.5,0.9,42.5,0.9z"/>
		</g>
		<g>
			<g>
				<polygon class="st8" points="23.8,60.5 41.9,29.5 47.6,35.1 24.6,62 				"/>
			</g>
			<g>
				<path class="st5" d="M57.8,30.5c-0.1,0-0.2,0-0.3-0.1c-0.2-0.2-0.2-0.5,0-0.7l10-10.3c0.2-0.2,0.5-0.2,0.7,0
					c0.2,0.2,0.2,0.5,0,0.7l-10,10.3C58.1,30.5,57.9,30.5,57.8,30.5z"/>
			</g>
			<g>
				<path class="st5" d="M60.4,35.6c-0.2,0-0.4-0.2-0.5-0.4c-0.1-0.3,0.1-0.5,0.4-0.6l7.1-1.4c0.3-0.1,0.5,0.1,0.6,0.4
					c0.1,0.3-0.1,0.5-0.4,0.6L60.4,35.6C60.4,35.6,60.4,35.6,60.4,35.6z"/>
			</g>
			<g>
				<path class="st5" d="M52.1,27.6C52.1,27.6,52.1,27.6,52.1,27.6c-0.3,0-0.5-0.2-0.5-0.5l0.3-8c0-0.3,0.2-0.5,0.5-0.5c0,0,0,0,0,0
					c0.3,0,0.5,0.2,0.5,0.5l-0.3,8C52.6,27.4,52.3,27.6,52.1,27.6z"/>
			</g>
			<g>
				<path class="st14" d="M17.4,60.4c0.4-0.9,1-1.6,2.1-1.5c0.5,0.1,1.7,1.1,1.9,1.3c0.2-0.3,0.3-0.4,0.3-0.5
					c5.9-11.2,11.8-22.4,17.7-33.6c0.2-0.5,0.2-0.7-0.2-1.1c-0.4-0.3-0.7-0.7-1-1c-0.8-0.9-0.9-2.1-0.1-2.9c0.8-0.8,2-0.7,2.8,0.1
					C43.7,24,60.3,40.6,65.7,46c0.6,0.6,0.9,1.3,0.6,2.1C66,49.5,64.3,50,63.2,49c-0.5-0.4-0.9-0.9-1.4-1.4
					c-0.1-0.1-0.4-0.2-0.5-0.1c-5.5,2.9-11,5.8-16.5,8.7c0,0-16.2,8.5-17.6,9.3c-0.1,0.1-0.3,0.3-0.4,0.3c0.2,0.1,0.5,0.2,0.6,0.4
					c1.1,1.1,0.9,2.8-0.5,3.4c-0.3,0.1-0.9,0.3-1.2,0c-0.6-0.4-7.9-7.8-8.5-8.5C17.4,61.3,17.1,61,17.4,60.4z M46.4,35.1
					c-1.9-1.9-2-2-3.9-3.9c-0.1,0.1-0.2,0.3-0.3,0.4C38,38.4,24.5,60.3,24.6,60.5C24.9,60.9,38.9,43.3,46.4,35.1z"/>
			</g>
			<g>
				<path class="st14" d="M40.2,67.7L38,69c-0.5,0.3-1.1,0.1-1.3-0.4l-3.5-6c-0.3-0.5-0.1-1.1,0.4-1.3l2.2-1.3
					c0.5-0.3,1.1-0.1,1.3,0.4l3.5,6C40.8,66.8,40.7,67.4,40.2,67.7z"/>
			</g>
		</g>
	</g>
</g>
<g id="extra_faces">
</g>
</svg>
