<?xml version="1.0" encoding="utf-8"?>
<!-- Generator: Adobe Illustrator 21.0.0, SVG Export Plug-In . SVG Version: 6.00 Build 0)  -->
<svg version="1.1" xmlns="http://www.w3.org/2000/svg" xmlns:xlink="http://www.w3.org/1999/xlink" x="0px" y="0px"
	 viewBox="0 0 85.2 85.2" style="enable-background:new 0 0 85.2 85.2;" xml:space="preserve">
<style type="text/css">
	.st0{display:none;}
	.st1{display:inline;}
	.st2{display:inline;fill:#FFFFFF;}
	.st3{fill:#FFFFFF;}
	.st4{fill:#73489D;}
	.st5{fill:#1C2053;}
	.st6{fill:#5DBA47;}
	.st7{fill:none;stroke:#000000;stroke-linecap:round;stroke-linejoin:round;stroke-miterlimit:10;}
	.st8{fill:#815DA7;}
	.st9{fill:none;stroke:#000000;stroke-width:0.5;stroke-linecap:round;stroke-linejoin:round;}
	.st10{fill:#FFFFFF;stroke:#FFFFFF;stroke-width:0.8736;stroke-miterlimit:10;}
	.st11{fill:none;}
	.st12{fill:#1D75BC;}
	.st13{fill:#5DBA47;stroke:#FFFFFF;stroke-width:0.75;stroke-miterlimit:10;}
	.st14{fill:#AF282F;}
	.st15{fill:#1D76BB;}
	.st16{fill:#74499D;}
	.st17{fill:#5DB847;}
	.st18{fill:#B0282E;}
	.st19{fill:none;stroke:#000000;stroke-miterlimit:10;}
	.st20{fill:none;stroke:#AF282F;stroke-miterlimit:10;}
</style>
<g id="Layer_4">
</g>
<g id="Layer_8">
</g>
<g id="Layer_1">
</g>
<g id="Layer_2">
</g>
<g id="shadow">
</g>
<g id="shadow_copy">
</g>
<g id="Layer_3">
	<g>
		<g>
			<circle class="st3" cx="42.6" cy="42.6" r="42.1"/>
			<path class="st3" d="M42.6,85.2C19.1,85.2,0,66.1,0,42.6S19.1,0,42.6,0s42.6,19.1,42.6,42.6S66.1,85.2,42.6,85.2z M42.6,1
				C19.7,1,1,19.7,1,42.6s18.7,41.6,41.6,41.6s41.6-18.7,41.6-41.6S65.5,1,42.6,1z"/>
		</g>
		<g>
			<path class="st6" d="M40.1,54.8c0,0,0.3-7,4.3-7.3s6.3,0.7,6.3,0.7s-0.1,2.5-2.1,6S40.1,54.8,40.1,54.8z"/>
		</g>
		<g>
			<g>
				<path class="st6" d="M41.5,61.2c-0.8,0-1.6-0.4-1.9-1.1c-0.6-1.4-3.6-8.4-3.7-10.7c-0.2-3,1.4-5.3,2.8-7.4c1-1.5,1.9-2.9,2-4.2
					c0.1-2.7-2-5-1.1-7c1.5-3.7,5.4,2.4,5.1,7.1c-0.1,2.1-1.3,3.9-2.5,5.6c-1.2,1.8-2.4,3.6-2.3,5.6c0.1,1.4,2.2,6.7,3.5,9.7
					c0.4,0.9-0.2,1.8-1.2,2.1C41.9,61.1,41.7,61.2,41.5,61.2z"/>
			</g>
		</g>
		<g>
			<path class="st14" d="M38.1,11.8c0.2,0,0.4,0,0.5,0c0,0,0.1,0,0.1,0c1.1,0.1,2,0.5,2.8,1.1c0.2,0.2,0.4,0.4,0.6,0.6
				c0,0,0-0.1,0.1-0.1c0.7-0.8,1.5-1.2,2.6-1.5c0.3-0.1,0.6-0.1,0.9-0.1c0.2,0,0.4,0,0.5,0c0.1,0,0.3,0,0.4,0.1
				c1.9,0.3,3.3,1.6,3.8,3.4c0.1,0.2,0.1,0.4,0.1,0.7c0,0.3,0,0.6,0,0.9c-0.1,0.3-0.1,0.6-0.2,0.9c-0.3,1.1-0.9,2-1.6,2.9
				c-0.9,1.1-1.9,2-2.9,3c-1.2,1.1-2.5,2.2-3.7,3.3c0,0,0,0-0.1,0c0,0-0.1-0.1-0.1-0.1c-0.4-0.3-0.7-0.7-1.1-1
				c-0.9-0.8-1.8-1.6-2.7-2.4c-1-0.9-2-1.9-2.9-3c-0.6-0.8-1.2-1.7-1.4-2.8c-0.1-0.3-0.1-0.5-0.1-0.8c0-0.3,0-0.6,0-0.9
				c0-0.1,0-0.2,0.1-0.4c0.3-1.7,1.7-3.3,3.5-3.6C37.6,11.9,37.9,11.8,38.1,11.8z"/>
		</g>
		<g>
			<path class="st4" d="M44,59.6c5.1,0,9.6,0,14.2,0c0.1,1.1,0.7,2-1,2.3c-0.4,0.1-0.8,1.2-0.9,1.8c-0.9,6.7-1.8,5.7-2.7,12.4
				c-0.1,0.6-0.2,1.2-0.4,2c-6.1,0-12.2,0-18.6,0c-0.7-5-2.6-12-3-14.4c-0.1-0.9-0.1-2-1.6-2c-0.2,0-0.4-1.1-0.7-2
				c4.5,0,8.6,0,12.1,0L44,59.6z"/>
		</g>
		<g>
			<path class="st6" d="M43,40c0,0-0.2-6.4,3.3-6.9c3.5-0.6,5.7,0.2,5.7,0.2s0.1,2.3-1.5,5.6C49.1,42,43,40,43,40z"/>
		</g>
		<g>
			<path class="st6" d="M38.2,44.9c0,0-6.6,2.2-8.3-1.2s-1.7-6-1.7-6s2.4-0.8,6.2-0.3C38.3,37.9,38.2,44.9,38.2,44.9z"/>
		</g>
	</g>
</g>
<g id="extra_faces">
</g>
</svg>
