<?xml version="1.0" encoding="utf-8"?>
<!-- Generator: Adobe Illustrator 21.0.0, SVG Export Plug-In . SVG Version: 6.00 Build 0)  -->
<svg version="1.1" xmlns="http://www.w3.org/2000/svg" xmlns:xlink="http://www.w3.org/1999/xlink" x="0px" y="0px"
	 viewBox="0 0 80.2 80.2" style="enable-background:new 0 0 80.2 80.2;" xml:space="preserve">
<style type="text/css">
	.st0{display:none;}
	.st1{display:inline;}
	.st2{display:inline;fill:#FFFFFF;}
	.st3{fill:#FFFFFF;}
	.st4{fill:#73489D;}
	.st5{fill:#1C2053;}
	.st6{fill:#5DBA47;}
	.st7{fill:none;stroke:#000000;stroke-linecap:round;stroke-linejoin:round;stroke-miterlimit:10;}
	.st8{fill:#815DA7;}
	.st9{fill:none;stroke:#000000;stroke-width:0.5;stroke-linecap:round;stroke-linejoin:round;}
	.st10{fill:#FFFFFF;stroke:#FFFFFF;stroke-width:0.8736;stroke-miterlimit:10;}
	.st11{fill:none;}
	.st12{fill:#1D75BC;}
	.st13{fill:#5DBA47;stroke:#FFFFFF;stroke-width:0.75;stroke-miterlimit:10;}
	.st14{fill:#AF282F;}
	.st15{fill:#1D76BB;}
	.st16{fill:#74499D;}
	.st17{fill:#5DB847;}
	.st18{fill:#B0282E;}
	.st19{fill:none;stroke:#000000;stroke-miterlimit:10;}
	.st20{fill:none;stroke:#AF282F;stroke-miterlimit:10;}
</style>
<g id="Layer_4">
</g>
<g id="Layer_8">
</g>
<g id="Layer_1">
</g>
<g id="Layer_2">
</g>
<g id="shadow">
</g>
<g id="shadow_copy">
</g>
<g id="Layer_3">
	<g>
		<path d="M53.5,77.9C53.5,77.9,53.5,77.9,53.5,77.9C53.5,77.9,53.5,77.9,53.5,77.9C53.5,77.9,53.5,77.9,53.5,77.9z"/>
	</g>
	<g>
		<path class="st3" d="M65.1,14.1C63.7,16,56.9,25,51.2,32.4c1.2,1.8,3.2,4.5,4,5.2c0.1,0.1,0.1,0.1,0.2,0.1l4,0.7
			c1.8,1,13.2,1.5,14.9,1.5c1.8,0,4.2,0.2,5.3,0.3c0.2,0,0.4,0,0.6,0c0,0,0-0.1,0-0.1c0-11-4.6-21.5-12.5-29.1
			C67,11.6,66.1,12.6,65.1,14.1z"/>
	</g>
	<g>
		<path class="st3" d="M18.3,58.9c0,0,0-1.5,0-3.5c0-0.7,0-1.5,0-2.3c-6.1,2.8-13.2,6.2-13.3,6.3c0,0,0,0-0.1,0
			c2.3,4.2,5.4,8,9,11.1C16,66.3,18.1,61.3,18.3,58.9C18.3,58.9,18.3,58.9,18.3,58.9z"/>
	</g>
	<g>
		<path class="st3" d="M38.7,57.8c0,0-1-1.3-2-2.6c-1.8,1-4.1,2.3-4.8,3c-0.1,0.1-0.1,0.1-0.1,0.2l-1.2,3.8
			c-1.2,1.7-2.9,12.9-3.2,14.7c0,0.4-0.1,0.8-0.2,1.3c3.1,1,6.3,1.7,9.5,2c1.1,0.1,2.1,0.1,3.3,0.1c4.5,0,8.9-0.8,13.1-2.2
			c0-0.2-0.1-0.3-0.1-0.3C47.8,70,39.5,58.4,38.7,57.8z"/>
	</g>
	<g>
		<path class="st3" d="M1.2,43.5c0,0,0.1,0,0.1,0c0,0,8.5-2.7,15.1-4.6c-0.1-0.3-0.2-0.5-0.1-0.8c0.4-1.5,2.9-1,2.9-1
			c0.2,0,0.9,0.1,1.8,0.2l0.4-1.3c-0.9-0.1-1.6-0.2-1.7-0.2c-0.7,0-1.5-1-1.4-1.7c0.1-0.5,1-1.2,1.6-1.3c0.1,0,1,0.1,2.4,0.2
			l0.3-0.9c-0.4-0.6-0.7-1-0.7-1c-2.9-4.6-6.9-10.8-9.4-14.7c-0.7-1.2-1.7-2.5-2.2-3.2c-0.1,0.1-0.1,0.1-0.2,0.2
			C3.6,20.7,0,30.2,0,40.1c0,1.2,0.1,2.4,0.2,3.6C0.6,43.6,1,43.5,1.2,43.5C1.2,43.5,1.2,43.5,1.2,43.5z"/>
	</g>
	<g>
		<path class="st3" d="M57.5,51c0,0-1.5,0.2-3.5,0.4c-0.2,0-0.3,0-0.5,0.1c1,3.1,2.3,7.2,2.5,7.7l9.8,10.7c0,0.1,0.2,0.3,0.5,0.5
			c4.1-3.6,7.5-7.9,9.9-12.9c0.2-0.3,0.3-0.7,0.5-1C74.3,55.6,61.7,51,57.5,51C57.6,51,57.5,51,57.5,51z"/>
	</g>
	<g>
		<path class="st3" d="M31.8,18.8c0.4,0.1,0.9,0.4,1.1,1.2c0,0.2-0.1,0.5-0.1,0.8c0.2,0.3,0.4,0.5,0.6,0.7c0.1-0.3,0.1-0.5,0.2-0.6
			c0.4-0.8,0.8-1.1,1-1.2c0.4-0.2,0.9-0.4,1.2-0.2c1.5,0.6,0.7,3,0.7,3c-0.1,0.2-0.2,1-0.5,2.2c0,0,0,0,0.1,0.1
			c0.3,0.2,0.5,0.3,0.5,0.3h0c0,0.1,0.3,0.3,0.6,0.6c0.3-1.3,0.6-2.3,0.6-2.5c0.1-0.7,1.2-1.4,1.9-1.2c0.2,0.1,0.4,0.3,0.6,0.5
			L55.2,3.2c0,0,0.1-0.1,0.1-0.2c-0.3-0.1-0.5-0.2-0.8-0.3C50,0.9,45.1,0,40.1,0C33,0,26,1.9,19.9,5.5c1.8,2.1,6.9,8.1,11.3,13.3
			C31.4,18.8,31.6,18.8,31.8,18.8z"/>
	</g>
	<g>
		<path class="st15" d="M35,30C35,30,35,30,35,30c-0.1,0.2-0.2,0.4-0.3,0.6c-0.3,1.5-0.6,2.8-0.8,3.7c0.4,0,0.7,0.1,1,0.1
			c0.2-0.9,0.6-2.2,1-3.7C35.5,30.4,35.2,30.2,35,30z"/>
	</g>
	<g>
		<path class="st15" d="M41.4,35.2c0.2,0,0.4-0.1,0.5-0.4c0.1-0.2-0.1-0.5-0.3-0.6c-1-0.5-2-1.1-2.9-1.6c-0.2,0.7-0.4,1.4-0.5,2.2
			C40.2,35.1,41.4,35.2,41.4,35.2z"/>
	</g>
	<g>
		<path class="st15" d="M55.2,3.2L40.3,22.5c0.3,0.4,0.5,0.9,0.5,1.3c0,0.2-0.4,1.9-1,4.3c0.9,0.6,1.7,1.1,2.5,1.2
			c2.1,0.2,7.8,2.1,8.3,2.5c0,0.1,0.1,0.2,0.3,0.4c0.1,0.1,0.2,0.2,0.2,0.3C56.9,25,63.7,16,65.1,14.1c1-1.5,2-2.4,2.6-3
			c-0.2-0.1-0.3-0.3-0.5-0.5C63.7,7.4,59.7,4.8,55.4,3C55.3,3.1,55.2,3.2,55.2,3.2z"/>
	</g>
	<g>
		<path class="st16" d="M56.1,59.1c-0.2-0.4-1.5-4.6-2.5-7.7c-3.2,0.4-7.4,0.8-9.2,1l-4.6-0.9c-0.6,1.4-1.2,2.6-1.4,2.8
			c-0.1,0-0.2,0.1-0.4,0.2c-0.3,0.2-0.7,0.4-1.1,0.6c1,1.3,2,2.6,2,2.6c0.8,0.6,9,12.3,14.4,19.9c0,0,0.1,0.1,0.1,0.3
			c0.1,0,0.2-0.1,0.3-0.1c0,0,0,0,0,0c0,0,0,0,0,0c0.1,0,0.2-0.1,0.3-0.1c4.6-1.7,8.7-4.1,12.4-7.2c0.1-0.1,0.1-0.1,0.2-0.2
			c-0.2-0.3-0.4-0.5-0.5-0.5L56.1,59.1z"/>
	</g>
	<g>
		<path class="st16" d="M36.1,24.7C36.1,24.7,36.1,24.7,36.1,24.7C36.1,24.7,36.1,24.6,36.1,24.7C36,24.6,36,24.6,36.1,24.7
			C36,24.7,36.1,24.7,36.1,24.7z"/>
	</g>
	<g>
		<path class="st16" d="M29.6,33.4C29.6,33.4,29.6,33.5,29.6,33.4c0,0.2,0,0.2,0,0.3c0.3,0,0.6,0.1,0.8,0.1c0-0.1,0.1-0.1,0.1-0.2
			c0,0,2.2-9.6,2.9-12.2c-0.2-0.2-0.4-0.5-0.6-0.7c-0.6,3.3-3,11.9-3,11.9L29.6,33.4z"/>
	</g>
	<g>
		<path class="st16" d="M34.9,29.8c0,0,0,0.1,0,0.1C34.9,29.8,34.9,29.8,34.9,29.8C34.9,29.8,34.9,29.8,34.9,29.8z"/>
	</g>
	<g>
		<path class="st16" d="M22.1,31c0,0,0.3,0.4,0.7,1l2.2-6.9c0.1-0.1,0.6-1.4,1.5-1c0.3,0.2,0.5,0.7,0.6,1.1l0,0c0,1.6-0.9,6.1-1,6.5
			s-0.4,1.6,0.3,1.6c0.6,0.1,0.7-1,0.8-1.3c0,0,2.9-11.8,3.2-12.5c0.3-0.5,0.5-0.7,0.9-0.7c-4.4-5.3-9.5-11.3-11.3-13.3
			c-0.2,0.1-0.5,0.2-0.7,0.4c-3.3,2-6.2,4.5-8.8,7.3c0.5,0.7,1.5,2,2.2,3.2C15.1,20.2,19.1,26.4,22.1,31z"/>
	</g>
	<g>
		<path class="st15" d="M35,30c0,0-0.1-0.1-0.1-0.2c0,0,0,0-0.1,0.1c-0.1,0.2-0.1,0.5-0.2,0.7C34.8,30.4,34.9,30.2,35,30z"/>
	</g>
	<g>
		<path class="st15" d="M18.3,53.1c0-2.8,0-5.9,0.1-7.5l0.6-1.8c-1.1-0.2-1.8-0.3-2-0.4c-0.7-0.3-0.9-0.7-0.9-1.4c0-0.5,0.3-1,1-1.3
			c0.6,0,1.5,0.1,2.7,0.2l0.2-0.7c-1.1-0.1-1.8-0.3-2-0.3c-0.8-0.3-1.2-0.7-1.3-0.9c-0.1-0.1-0.2-0.3-0.2-0.4
			c-6.6,1.9-15,4.6-15.1,4.6c0,0-0.1,0-0.1,0c0,0,0,0,0,0c-0.2,0.1-0.6,0.1-1.1,0.2c0,0.4,0.1,0.9,0.1,1.3c0.6,4.8,2,9.5,4.3,13.7
			C4.7,59,4.8,59.2,5,59.4c0.1,0,0.1,0,0.1,0C5.2,59.4,12.3,55.9,18.3,53.1z"/>
	</g>
	<g>
		<path class="st17" d="M25.3,48.7l-2.1-0.4c-0.1-0.1-1.5-0.5-1.2-1.4c0.1-0.4,0.6-0.6,1-0.7l0,0c0.1,0,0.2,0,0.3,0
			c1.8-0.1,5.8,0.2,6.2,0.3c0.4,0.1,1.6,0.2,1.6-0.4c0-0.6-1.1-0.6-1.3-0.6c0,0-3.4-0.4-6.7-0.9c-1.5-0.2-3-0.4-4.1-0.6l-0.6,1.8
			c-0.1,1.5-0.1,4.6-0.1,7.5c0,0.8,0,1.6,0,2.3c0,2,0,3.5,0,3.5c0,0,0,0,0,0c-0.3,2.4-2.4,7.4-4.3,11.6c2,1.7,4.1,3.2,6.4,4.5
			c2.2,1.3,4.5,2.3,6.9,3.1c0.1-0.4,0.1-0.9,0.2-1.3c0.2-1.7,2-12.9,3.2-14.7l1.2-3.8c0-0.1,0.1-0.2,0.1-0.2c0.7-0.7,3-2,4.8-3
			c0.4-0.2,0.8-0.4,1.1-0.6c0.2-0.1,0.4-0.2,0.4-0.2c0.2-0.2,0.8-1.4,1.4-2.8l-0.8-0.2L25.3,48.7z"/>
		<path class="st17" d="M30.2,42.6l0.8,0.1c0,0,0,0,0.1,0c0.2,0,0.5-0.2,0.5-0.4c0-0.3-0.2-0.5-0.4-0.6c0,0-3.9-0.4-7.5-0.8
			c-1.3-0.1-2.5-0.3-3.5-0.4l-0.2,0.7c1.1,0.1,2.3,0.3,3.6,0.5C26.8,42,30.2,42.6,30.2,42.6z"/>
		<path class="st17" d="M34.9,34.4c1.2,0.2,2.4,0.3,3.3,0.4c0.2-0.7,0.4-1.5,0.5-2.2c-1.2-0.7-2.2-1.3-2.9-1.9
			C35.5,32.2,35.1,33.5,34.9,34.4z"/>
		<path class="st17" d="M40.3,22.5c-0.2-0.2-0.4-0.4-0.6-0.5c-0.7-0.3-1.8,0.5-1.9,1.2c0,0.2-0.3,1.2-0.6,2.5
			c0.1,0.1,0.2,0.3,0.4,0.4c0,0,0,0,0,0c0.7,0.7,1.5,1.4,2.3,2c0.6-2.4,1-4.1,1-4.3C40.8,23.3,40.6,22.8,40.3,22.5z"/>
		<path class="st17" d="M30.5,33.8c0.8,0.1,1.6,0.2,2.3,0.3c0.3,0,0.6,0.1,0.8,0.1c0.1,0,0.1,0,0.2,0c0.2-0.9,0.5-2.2,0.8-3.7
			c0.1-0.2,0.1-0.5,0.2-0.7c0,0,0-0.1,0-0.1c-0.2-0.2-0.4-0.5-0.5-0.8c-0.7-1.2-1.1-2.4-1.1-3.3c0-0.5,0.1-0.9,0.4-1.1
			c0.2-0.2,0.5-0.3,0.7-0.3c0.6-0.1,1.3,0.2,1.7,0.4c0,0,0,0,0,0c0.3-1.1,0.5-2,0.5-2.2c0,0,0.8-2.4-0.7-3c-0.4-0.2-0.8,0-1.2,0.2
			c-0.2,0.1-0.6,0.4-1,1.2c0,0.1-0.1,0.3-0.2,0.6c-0.7,2.5-2.9,12.2-2.9,12.2C30.6,33.7,30.5,33.8,30.5,33.8z"/>
		<path class="st17" d="M29.7,33.7c0-0.1-0.1-0.2,0-0.2c0,0,0,0,0-0.1l0.2-0.7c0,0,2.4-8.6,3-11.9c0.1-0.3,0.1-0.6,0.1-0.8
			c-0.2-0.8-0.7-1.1-1.1-1.2c-0.2,0-0.4,0-0.6,0c-0.3,0.1-0.6,0.3-0.9,0.7C29.9,20.2,27.1,32,27.1,32c0,0.3-0.2,1.3-0.8,1.3
			c-0.6-0.1-0.4-1.3-0.3-1.6s1-4.8,1-6.5l0,0c-0.1-0.4-0.3-0.9-0.6-1.1c-0.9-0.4-1.4,1-1.5,1L22.8,32l-0.3,0.9c0.3,0,0.6,0.1,1,0.1
			C25.2,33.2,27.4,33.5,29.7,33.7z"/>
		<path class="st17" d="M23.9,37.6c3.8,0.4,8.5,0.9,8.5,0.9c0,0,0,0,0.1,0c0.2,0,0.5-0.2,0.5-0.4c0-0.3-0.1-0.5-0.4-0.6
			c0,0-7.5-1.1-11-1.6l-0.4,1.3c0.2,0,0.5,0.1,0.7,0.1C22.4,37.4,23.2,37.5,23.9,37.6z"/>
	</g>
	<g>
		<path class="st16" d="M33.7,34.2c0,0.1,0.1,0.1,0.1,0.2c0-0.1,0-0.1,0-0.2C33.8,34.3,33.7,34.2,33.7,34.2z"/>
	</g>
	<g>
		<path class="st16" d="M38.9,51.3l0.8,0.2c0.1-0.1,0.1-0.3,0.2-0.4l-0.8,0.1C39.1,51.2,39,51.3,38.9,51.3z"/>
	</g>
	<path class="st18" d="M39.7,51.5l4.6,0.9c1.9-0.1,6.1-0.6,9.2-1c0.2,0,0.3,0,0.5-0.1c2-0.2,3.5-0.4,3.5-0.4s0,0,0,0
		c4.2,0,16.7,4.6,19.2,5.5c2.3-5.1,3.5-10.6,3.5-16.3c-0.2,0-0.3,0-0.6,0c-1.1-0.1-3.5-0.3-5.3-0.3c-1.7,0-13.1-0.5-14.9-1.5l-4-0.7
		c-0.1,0-0.2-0.1-0.2-0.1c-0.9-0.7-2.8-3.4-4-5.2c-0.1-0.1-0.2-0.2-0.2-0.3c-0.1-0.2-0.2-0.4-0.3-0.4c-0.5-0.4-6.1-2.2-8.3-2.5
		c-0.8-0.1-1.7-0.6-2.5-1.2c-0.8-0.6-1.6-1.3-2.3-2c0,0,0,0,0,0c-0.1-0.1-0.3-0.3-0.4-0.4c-0.3-0.3-0.5-0.6-0.6-0.6h0
		c0,0-0.2-0.1-0.5-0.3c0,0,0,0,0,0c0,0,0,0,0,0c-0.4-0.2-1.1-0.5-1.7-0.4c-0.2,0-0.5,0.1-0.7,0.3c-0.3,0.2-0.4,0.6-0.4,1.1
		c0,0.9,0.4,2.1,1.1,3.3c0.2,0.3,0.4,0.6,0.5,0.8c0,0,0,0,0,0.1c0,0.1,0.1,0.1,0.1,0.2c0,0,0,0,0,0c0.2,0.2,0.5,0.5,0.8,0.7
		c0.7,0.6,1.8,1.2,2.9,1.9c1,0.6,2,1.1,2.9,1.6c0.2,0.1,0.3,0.4,0.3,0.6c-0.1,0.2-0.3,0.4-0.5,0.4c0,0-1.3-0.2-3.2-0.4
		c-1-0.1-2.1-0.3-3.3-0.4c-0.3,0-0.7-0.1-1-0.1c0,0.1,0,0.1,0,0.2c0-0.1-0.1-0.1-0.1-0.2c-0.3,0-0.6-0.1-0.8-0.1
		c-0.8-0.1-1.6-0.2-2.3-0.3c-0.3,0-0.6-0.1-0.8-0.1c-2.3-0.3-4.5-0.6-6.2-0.8c-0.3,0-0.7-0.1-1-0.1c-1.4-0.2-2.3-0.3-2.4-0.2
		c-0.7,0.1-1.5,0.8-1.6,1.3c-0.2,0.7,0.7,1.7,1.4,1.7c0.1,0,0.8,0.1,1.7,0.2c3.5,0.5,11,1.6,11,1.6c0.3,0,0.5,0.3,0.4,0.6
		c0,0.2-0.2,0.4-0.5,0.4c0,0,0,0-0.1,0c0,0-4.7-0.5-8.5-0.9c-0.8-0.1-1.5-0.2-2.1-0.2c-0.2,0-0.5-0.1-0.7-0.1
		c-1-0.1-1.7-0.2-1.8-0.2c0,0-2.4-0.5-2.9,1c-0.1,0.3,0,0.5,0.1,0.8c0.1,0.1,0.1,0.3,0.2,0.4c0.1,0.2,0.5,0.6,1.3,0.9
		c0.2,0.1,1,0.2,2,0.3c1,0.1,2.2,0.3,3.5,0.4c3.6,0.4,7.5,0.8,7.5,0.8c0.3,0,0.5,0.3,0.4,0.6c0,0.3-0.2,0.4-0.5,0.4c0,0,0,0-0.1,0
		l-0.8-0.1c0,0-3.3-0.5-6.7-1c-1.3-0.2-2.5-0.3-3.6-0.5c-1.2-0.1-2.1-0.2-2.7-0.2c-0.8,0.3-1,0.8-1,1.3c-0.1,0.7,0.1,1.1,0.9,1.4
		c0.2,0.1,0.9,0.2,2,0.4c1.1,0.2,2.6,0.4,4.1,0.6c3.3,0.4,6.7,0.9,6.7,0.9c0.3,0,1.3,0.1,1.3,0.6c0,0.6-1.2,0.5-1.6,0.4
		c-0.4-0.1-4.4-0.4-6.2-0.3c-0.1,0-0.2,0-0.3,0l0,0c-0.4,0.1-0.9,0.4-1,0.7c-0.3,0.9,1.1,1.3,1.2,1.4l2.1,0.4l13.6,2.6"/>
</g>
<g id="extra_faces">
</g>
</svg>
