<?xml version="1.0" encoding="utf-8"?>
<!-- Generator: Adobe Illustrator 21.0.0, SVG Export Plug-In . SVG Version: 6.00 Build 0)  -->
<svg version="1.1" xmlns="http://www.w3.org/2000/svg" xmlns:xlink="http://www.w3.org/1999/xlink" x="0px" y="0px"
	 viewBox="0 0 85 85" style="enable-background:new 0 0 85 85;" xml:space="preserve">
<style type="text/css">
	.st0{display:none;}
	.st1{display:inline;}
	.st2{display:inline;fill:#FFFFFF;}
	.st3{fill:#FFFFFF;}
	.st4{fill:#73489D;}
	.st5{fill:#1C2053;}
	.st6{fill:#5DBA47;}
	.st7{fill:none;stroke:#000000;stroke-linecap:round;stroke-linejoin:round;stroke-miterlimit:10;}
	.st8{fill:#815DA7;}
	.st9{fill:none;stroke:#000000;stroke-width:0.5;stroke-linecap:round;stroke-linejoin:round;}
	.st10{fill:#FFFFFF;stroke:#FFFFFF;stroke-width:0.8736;stroke-miterlimit:10;}
	.st11{fill:none;}
	.st12{fill:#1D75BC;}
	.st13{fill:#5DBA47;stroke:#FFFFFF;stroke-width:0.75;stroke-miterlimit:10;}
	.st14{fill:#AF282F;}
	.st15{fill:#1D76BB;}
	.st16{fill:#74499D;}
	.st17{fill:#5DB847;}
	.st18{fill:#B0282E;}
	.st19{fill:none;stroke:#000000;stroke-miterlimit:10;}
	.st20{fill:none;stroke:#AF282F;stroke-miterlimit:10;}
</style>
<g id="Layer_4">
</g>
<g id="Layer_8">
</g>
<g id="Layer_1">
</g>
<g id="Layer_2">
</g>
<g id="shadow">
</g>
<g id="shadow_copy">
</g>
<g id="Layer_3">
	<g>
		<path class="st9" d="M64.6,44.6c-0.1,0.1-0.2,0.3-0.2,0.4c0.1,0.7,0.1,2.7-0.6,3.4c-0.5,0.5-20.6,17.7-20.8,18l6-30.5
			c-0.1-0.1-0.2-0.1-0.4-0.1c0,0,0,0,0,0c-0.3,0-3.4,0.2-4.7,0.9c-1.2,0.7-7.3,4.9-8,5.4c-0.3,0.1-1.9,0.5-2.8-0.2
			c-0.6-0.5-0.7-1.4-0.6-2.7l10.8-9.9c0.9-0.3,2.2-0.7,3.5-1.1c1.7-0.5,6.8,0.9,8.6,1.5c0.2,0.1,0.3,0,0.5-0.1l18.2-13.6
			c1.2,1.4,5.5,7.1,8,15.2L64.6,44.6z"/>
		<circle class="st10" cx="42.5" cy="42.5" r="42.1"/>
		<path class="st11" d="M55.8,29.6c-0.1,0.1-0.3,0.1-0.5,0.1c-1.8-0.6-6.9-2-8.6-1.5c-1.3,0.4-2.6,0.8-3.5,1.1l-10.8,9.9
			c-0.2,1.3,0,2.2,0.6,2.7c0.9,0.7,2.4,0.3,2.8,0.2c0.7-0.5,6.8-4.7,8-5.4c1.3-0.7,4.4-0.9,4.7-0.9c0,0,0,0,0,0
			c0.1,0,0.3,0.1,0.4,0.1l13.7,13.6c0.2-0.2,0.6-0.6,1.1-1.1c0.7-0.8,0.7-2.7,0.6-3.4c0-0.2,0.1-0.3,0.2-0.4l17.4-13.5
			c-2.5-8.1-6.8-13.8-8-15.2L55.8,29.6z"/>
		<g>
			<path class="st11" d="M32.6,58.7l-0.2-0.2c-0.2,0.3-0.4,0.6-0.5,0.9C32.1,59.2,32.4,59,32.6,58.7z"/>
			<path class="st11" d="M25.5,48.1c2.3,0,4.1,1.9,4.1,4.1v0.2c0,0,0,0,0,0.1c0,0,0.1,0,0.1,0H30c2.2,0,4,1.7,4.1,3.8
				c0.2,0,0.5-0.1,0.7-0.1h0.2c2.3,0,4.1,1.9,4.1,4.1v0.2c0,0.7-0.2,1.4-0.5,2c2.2,1.4,5.7,3.5,6.4,3.6l0.2,0
				c1.2,0.1,3.2,0.4,4.7-1.7l-4-2.8c-0.2-0.2-0.3-0.5-0.1-0.7c0.2-0.2,0.5-0.3,0.7-0.1l4.3,3c0.7-0.1,3.3-0.5,4.6-3.4l-5-3.1
				c-0.2-0.1-0.3-0.5-0.2-0.7c0.1-0.2,0.5-0.3,0.7-0.2l5.2,3.2c0.4-0.2,1.8-0.9,3.3-3.5l-4.9-3.5c-0.2-0.2-0.3-0.5-0.1-0.7
				c0.2-0.2,0.5-0.3,0.7-0.1l5,3.6c0.8-0.5,3.4-2.1,2.8-4c-0.2-0.7-0.5-0.8-0.5-0.8c0,0,0,0-0.1-0.1c0,0,0,0,0,0l0,0c0,0,0,0,0,0
				L48.4,36.8c-1,0.1-3.2,0.3-4.1,0.8c-1.2,0.7-7.9,5.3-8,5.4c0,0-0.1,0-0.1,0.1c-0.1,0-2.4,0.8-3.8-0.4c-0.9-0.7-1.2-2-0.9-3.8
				c0-0.1,0.1-0.2,0.2-0.3l9.7-9c-1.1,0-3.1-0.2-4.8-1.2c-1.8-1-5.3,0.5-6.5,1.2c-0.2,0.1-0.4,0.1-0.5,0l-20.1-13c0,0-0.1,0-0.1,0.1
				C5.8,20.7,4.2,24.8,2,30.9l19.1,13.6c0.1,0.1,0.1,0.1,0.2,0.2c0.6,1.6,1.3,3.4,1.7,4c0.7-0.4,1.4-0.7,2.3-0.7H25.5z"/>
			<path class="st11" d="M28.6,55.2c-0.5,0.6-1.2,1-2,1.3c0,0.1,0,0.1,0,0.2v0.2c0,1.7,1.4,3.1,3.1,3.1H30c0.3,0,0.5,0,0.7-0.1
				c0.1-0.8,0.4-1.5,0.9-2.1L28.6,55.2z"/>
			<path class="st11" d="M27.8,54.5l-0.2-0.2c-0.3,0.3-0.5,0.6-0.7,0.9C27.3,55,27.6,54.8,27.8,54.5z"/>
			<g>
				<path class="st6" d="M39.6,67.1c-1.5,0-2.8-1.8-3.2-2.4c-0.1-0.1-0.1-0.3-0.1-0.4c0-0.1,0.1-0.3,0.3-0.3
					c0.4-0.2,0.8-0.5,1.1-0.8c0.1-0.1,0.2-0.2,0.4-0.2c0.1,0,0.2,0,0.3,0.1c0.9,0.6,3.1,2,4.8,2.9c0.1,0,0.2,0.1,0.3,0.1
					c0.2,0.1,0.3,0.2,0.4,0.3c-0.2,0.2-0.7,0.5-0.9,0.5C41.9,67,40.6,67,39.6,67.1L39.6,67.1z"/>
				<path class="st3" d="M38.1,63.5L38.1,63.5c0.9,0.6,3.1,2,4.8,2.9c0,0,0,0,0,0c-1,0.1-2.3,0.1-3.2,0.1l-0.1,0
					c-1,0-2.1-1.1-2.7-2.2C37.3,64.2,37.7,63.9,38.1,63.5 M38.1,62.5c-0.3,0-0.5,0.1-0.7,0.3c-0.3,0.3-0.6,0.5-0.9,0.7
					c-0.3,0.1-0.5,0.4-0.5,0.6c-0.1,0.3,0,0.6,0.1,0.8c0.5,0.8,1.9,2.6,3.6,2.6c0,0,0.1,0,0.1,0c0.9,0,2.2-0.1,3.3-0.1
					c0.4,0,1.6-0.8,1.4-1.2c-0.2-0.4-0.6-0.5-1-0.7c-1.7-0.9-3.9-2.3-4.8-2.9C38.5,62.5,38.3,62.5,38.1,62.5L38.1,62.5z"/>
			</g>
			<path class="st11" d="M55.8,29.6c-0.1,0.1-0.3,0.1-0.5,0.1c-1.8-0.6-6.9-2-8.6-1.5c-1.3,0.4-2.6,0.8-3.5,1.1l-10.8,9.9
				c-0.2,1.3,0,2.2,0.6,2.7c0.9,0.7,2.4,0.3,2.8,0.2c0.7-0.5,6.8-4.7,8-5.4c1.3-0.7,4.4-0.9,4.7-0.9c0,0,0,0,0,0
				c0.1,0,0.3,0.1,0.4,0.1l13.7,13.6c0.2-0.2,0.6-0.6,1.1-1.1c0.7-0.8,0.7-2.7,0.6-3.4c0-0.2,0.1-0.3,0.2-0.4l17.4-13.5
				c-2.5-8.1-6.8-13.8-8-15.2L55.8,29.6z"/>
			<path class="st11" d="M37.9,62c0.2-0.4,0.3-0.9,0.3-1.4v-0.2c0-1.7-1.4-3.1-3.1-3.1h-0.2c-0.3,0-0.5,0-0.7,0.1
				c0,0.4-0.1,0.7-0.3,1.1L37.9,62z"/>
			<path class="st12" d="M62.9,51.5c-0.2-0.7-0.5-0.8-0.5-0.8c0,0,0,0-0.1-0.1c0,0,0,0,0,0l0,0c0,0,0,0,0,0L48.4,36.8
				c-1,0.1-3.2,0.3-4.1,0.8c-1.2,0.7-7.9,5.3-8,5.4c0,0-0.1,0-0.1,0.1c-0.1,0-2.4,0.8-3.8-0.4c-0.9-0.7-1.2-2-0.9-3.8
				c0-0.1,0.1-0.2,0.2-0.3l9.5-8.7c0.1,0,0.2,0,0.3,0h0c0.1,0,0.2-0.1,0.2-0.2c0-0.1-0.1-0.3-0.2-0.3c-1,0-3-0.2-4.7-1.1
				c-2.2-1.3-6.7,1.2-6.7,1.2c-0.1,0-0.2,0-0.3,0c0,0-20.6-13.2-20.6-13.2c-3.5,4-5.8,9-7.5,14.6l19.4,13.8c0.1,0.1,0.1,0.1,0.2,0.2
				c0.7,1.8,1.5,3.9,1.8,4.2l15.2,13.5c2.2,1.4,6,3.8,6.8,3.9l0.2,0c1.2,0.1,3.2,0.4,4.7-1.7l-4-2.8c-0.2-0.2-0.3-0.5-0.1-0.7
				c0.2-0.2,0.5-0.3,0.7-0.1l4.3,3c0.7-0.1,3.3-0.5,4.6-3.4l-5-3.1c-0.2-0.1-0.3-0.5-0.2-0.7c0.1-0.2,0.5-0.3,0.7-0.2l5.2,3.2
				c0.4-0.2,1.8-0.9,3.3-3.5l-4.9-3.5c-0.2-0.2-0.3-0.5-0.1-0.7c0.2-0.2,0.5-0.3,0.7-0.1l5,3.6C60.9,55,63.4,53.4,62.9,51.5z"/>
			<path class="st9" d="M37.3,62.9c-0.6,0.6-1.4,0.9-2.2,0.9h-0.2c-1.7,0-3.1-1.4-3.1-3.1c0,0,0,0,0,0v-0.2c0-0.4,0.1-0.7,0.2-1
				c0.1-0.3,0.3-0.6,0.5-0.9c0.2-0.2,0.4-0.4,0.6-0.6c0-0.1,0-0.1,0.1-0.2l0.1,0.1c0.3-0.2,0.6-0.3,1-0.4c0.2-0.1,0.5-0.1,0.7-0.1
				h0.2c1.7,0,3.1,1.4,3.1,3.1v0.2c0,0.5-0.1,1-0.3,1.4"/>
			<path class="st6" d="M83.2,30c-3-9.9-8.3-15.4-8.4-15.5c-0.3-0.4-0.9-0.5-1.4-0.1L55.3,28.1c-2.2-0.7-6.9-2-9-1.3
				c-1.4,0.4-5,2.3-5.1,2.4l-9.8,9c-0.2,0.1-0.3,0.4-0.3,0.6c-0.3,2,0,3.4,1.1,4.2c1.6,1.3,4,0.6,4.3,0.5c0.1,0,0.2-0.1,0.3-0.1
				c1.1-0.8,6.9-4.8,8-5.4c0.6-0.3,2.3-0.6,3.6-0.7l14.7,14.2l0.7-0.8l0.2-0.1c0.2-0.2,0.6-0.6,1.1-1.2c1-1.1,1.1-3,1.1-4L82.6,31
				C83,30.7,83.3,30.4,83.2,30z"/>
			<path class="st9" d="M29.7,53.5H30c1.7,0,3.1,1.4,3.1,3.1c-0.3,0.1-0.5,0.3-0.8,0.5c-0.3,0.2-0.5,0.4-0.7,0.7
				c-0.5,0.6-0.8,1.3-0.9,2.1C30.5,60,30.2,60,30,60h-0.2c-1.7,0-3.1-1.4-3.1-3.1v-0.2c0-0.1,0-0.1,0-0.2c0-0.4,0.1-0.8,0.3-1.2
				c0.2-0.3,0.4-0.6,0.7-0.9c0.2-0.2,0.4-0.3,0.6-0.4c0-0.1,0.1-0.2,0.1-0.3l0.1,0.1c0.3-0.1,0.6-0.2,0.9-0.2
				C29.6,53.5,29.6,53.5,29.7,53.5z"/>
			<path class="st9" d="M23.7,49.5c0.5-0.3,1-0.4,1.5-0.4h0.2c1.7,0,3.1,1.4,3.1,3.1v0.2c0,0.1,0,0.1,0,0.2
				c-0.3,0.1-0.6,0.2-0.9,0.4c-0.3,0.2-0.6,0.4-0.8,0.6c-0.5,0.5-0.9,1.2-1.1,1.9c-0.1,0-0.2,0-0.3,0h-0.2c-1.7,0-3.1-1.4-3.1-3.1
				v-0.2c0-0.8,0.3-1.5,0.8-2.1C23.1,49.9,23.4,49.7,23.7,49.5z"/>
			<path class="st13" d="M25.5,48.6h-0.2c-2,0-3.6,1.6-3.6,3.6v0.2c0,2,1.6,3.6,3.6,3.6h0.2c2,0,3.6-1.6,3.6-3.6v-0.2
				C29.1,50.2,27.5,48.6,25.5,48.6z"/>
			<path class="st13" d="M30,53h-0.2c-2,0-3.6,1.6-3.6,3.6v0.2c0,2,1.6,3.6,3.6,3.6H30c2,0,3.6-1.6,3.6-3.6v-0.2
				C33.6,54.7,32,53,30,53z"/>
			<path class="st13" d="M35.1,56.8h-0.2c-2,0-3.6,1.6-3.6,3.6v0.2c0,2,1.6,3.6,3.6,3.6h0.2c2,0,3.6-1.6,3.6-3.6v-0.2
				C38.8,58.4,37.1,56.8,35.1,56.8z"/>
		</g>
	</g>
</g>
<g id="extra_faces">
</g>
</svg>
