<?xml version="1.0" encoding="utf-8"?>
<!-- Generator: Adobe Illustrator 21.0.0, SVG Export Plug-In . SVG Version: 6.00 Build 0)  -->
<svg version="1.1" xmlns="http://www.w3.org/2000/svg" xmlns:xlink="http://www.w3.org/1999/xlink" x="0px" y="0px"
	 viewBox="0 0 85 85" style="enable-background:new 0 0 85 85;" xml:space="preserve">
<style type="text/css">
	.st0{display:none;}
	.st1{display:inline;}
	.st2{display:inline;fill:#FFFFFF;}
	.st3{fill:#FFFFFF;}
	.st4{fill:#73489D;}
	.st5{fill:#1C2053;}
	.st6{fill:#5DBA47;}
	.st7{fill:none;stroke:#000000;stroke-linecap:round;stroke-linejoin:round;stroke-miterlimit:10;}
	.st8{fill:#815DA7;}
	.st9{fill:none;stroke:#000000;stroke-width:0.5;stroke-linecap:round;stroke-linejoin:round;}
	.st10{fill:#FFFFFF;stroke:#FFFFFF;stroke-width:0.8736;stroke-miterlimit:10;}
	.st11{fill:none;}
	.st12{fill:#1D75BC;}
	.st13{fill:#5DBA47;stroke:#FFFFFF;stroke-width:0.75;stroke-miterlimit:10;}
	.st14{fill:#AF282F;}
	.st15{fill:#1D76BB;}
	.st16{fill:#74499D;}
	.st17{fill:#5DB847;}
	.st18{fill:#B0282E;}
	.st19{fill:none;stroke:#000000;stroke-miterlimit:10;}
	.st20{fill:none;stroke:#AF282F;stroke-miterlimit:10;}
</style>
<g id="Layer_4">
</g>
<g id="Layer_8">
</g>
<g id="Layer_1">
</g>
<g id="Layer_2">
</g>
<g id="shadow">
</g>
<g id="shadow_copy">
</g>
<g id="Layer_3">
</g>
<g id="extra_faces">
	<g>
		<circle class="st3" cx="42.5" cy="42.5" r="42.1"/>
		<path class="st3" d="M42.5,85C19.1,85,0,66,0,42.5C0,19.1,19.1,0,42.5,0S85,19.1,85,42.5C85,66,66,85,42.5,85z M42.5,0.9
			c-23,0-41.6,18.7-41.6,41.6c0,23,18.7,41.6,41.6,41.6s41.6-18.7,41.6-41.6C84.2,19.6,65.5,0.9,42.5,0.9z"/>
	</g>
	<g>
		<g>
			<g>
				<path class="st14" d="M59.2,28.9L59,29.3c-0.8,2-2,4.1-3.3,4.8c-0.4,0.2-0.7,0.3-1.1,0.3c-0.2,0-0.3,0-0.5-0.1
					c-0.4-0.1-0.7-0.3-1-0.4l-0.5,0.2c-0.2,0.3-1.1,1.9-0.7,3.3c0.2,0.6,0.7,1.1,1.4,1.5c0.4,0.2,0.8,0.2,1.3,0
					c2.7-1,5.5-7.4,5.5-7.5c0,0,0.4-1.2,0-1.9C59.9,29.2,59.6,29,59.2,28.9z"/>
			</g>
			<g>
				<path class="st14" d="M54.6,33.8c0.3,0,0.5-0.1,0.8-0.2c1-0.6,1.9-2.1,2.7-3.7l-4.6,3.6c0.2,0.1,0.4,0.2,0.7,0.3
					C54.3,33.8,54.5,33.8,54.6,33.8z"/>
			</g>
		</g>
		<g>
			<g>
				<rect x="26.6" y="44.5" class="st8" width="13" height="13"/>
			</g>
			<g>
				<rect x="45.6" y="44.5" class="st12" width="13" height="13"/>
			</g>
			<g>
				<rect x="36.6" y="57.6" class="st6" width="13" height="13"/>
			</g>
			<g>
				<rect x="18.6" y="57.6" class="st12" width="13" height="13"/>
			</g>
			<g>
				<rect x="55.6" y="57.6" class="st8" width="13" height="13"/>
			</g>
			<g>
				<g>
					<path class="st14" d="M52.6,32.5c0.3,0.6,0.8,1,1.6,1.2c0.1,0,0.2,0,0.4,0c0.3,0,0.5-0.1,0.8-0.2c2.2-1.3,4-6.8,4.5-8.8
						c0,0,0.2-0.8-0.3-1.5c-0.4-0.6-1.2-0.9-2.4-0.9c0.3,2.6,0.1,5.5-0.9,6.9c-0.5,0.8-1.2,1-1.6,1c0,0-0.1,0-0.1,0
						c-0.7,0-1.4-0.4-2-0.9C52.4,30.1,52.1,31.5,52.6,32.5z"/>
				</g>
				<g>
					<g>
						<g>
							<path class="st14" d="M49.4,22.4c0.3-0.1,0.5,0.1,0.6,0.3c0.5,1.8,2.4,6.4,4.6,6.6c0.1,0,0.5,0,0.9-0.6c1.2-2,1-7.9-0.3-10.3
								c-1.2-2.1-5.1-2.6-8.2-3.1c-1.7-0.2-3.2-0.4-4.1-0.9c-1.6-0.6-19.1,6.5-34.8,13.7l0.2,17.4l21-11.7c0.2-0.1,0.4-0.1,0.5,0
								c0,0,2.6,1.8,6.9,1.2c0.3,0,0.5,0.2,0.6,0.4c0,0,0,0.1,0,0.1c2.7,0.3,6.1,0.6,10.4,0.7l2.1,2.2l-0.1,0c0,0-0.1,0.1-0.1,0.2
								c0.1,0,0.2,0,0.3,0.1c0.2,0.2,0.2,0.5,0,0.7c0,0-0.5,0.7-0.4,1.3c0.1,0.5,0.6,1,1.5,1.4c1.3,0.6,2.9-1.1,4.3-3.1
								c-0.2,0.1-0.4,0.2-0.5,0.3c-0.3,0.1-0.6,0.2-0.9,0.2c-0.3,0-0.6-0.1-0.9-0.2c-1-0.4-1.6-1.1-1.8-2c-0.5-1.8,0.8-3.8,0.8-3.9
								c0,0,0.1-0.1,0.1-0.1c-0.2-0.2-0.3-0.4-0.4-0.6c-0.8-1.7-0.1-3.9,0.1-4.4c-1.6-2-2.6-5.1-2.7-5.6
								C49,22.8,49.2,22.5,49.4,22.4z M39.9,29.8c-0.2,1.1-0.9,2-2.1,2.7c-1,0.5-1.8,0.8-2.5,0.8c-0.3,0-0.5,0-0.7-0.1
								c-0.9-0.3-1.2-1.1-1.4-1.7c-0.1-0.2-0.2-0.5-0.3-0.6c-3.1-0.1-5.2-3.3-5.8-4.2c-0.7-1.2-1.2-2.6-1-3.4l10.7-1.4
								c0,0.6,0.7,1.9,1.1,2.5C38,24.4,40.4,27.2,39.9,29.8z"/>
						</g>
					</g>
				</g>
			</g>
			<g>
				
					<rect x="37.6" y="25.5" transform="matrix(0.9971 7.618243e-02 -7.618243e-02 0.9971 2.5679 -3.2654)" class="st6" width="13" height="13"/>
			</g>
			<g>
				<path class="st14" d="M35.4,32.8c-0.9,0-1.2-0.7-1.4-1.4c-0.2-0.5-0.4-1-0.9-1c-2.8-0.1-4.7-3-5.3-3.9c-0.8-1.3-1.1-3.2-1-3.7
					l9.3-1.2c0.2,1,1.3,3.3,1.3,3.4c0,0,2.2,2.7,1.8,4.9c-0.2,0.9-0.7,1.6-1.7,2.1C36.6,32.6,35.9,32.8,35.4,32.8L35.4,32.8z"/>
			</g>
		</g>
	</g>
</g>
</svg>
