<?xml version="1.0" encoding="utf-8"?>
<!-- Generator: Adobe Illustrator 21.0.0, SVG Export Plug-In . SVG Version: 6.00 Build 0)  -->
<svg version="1.1" xmlns="http://www.w3.org/2000/svg" xmlns:xlink="http://www.w3.org/1999/xlink" x="0px" y="0px"
	 viewBox="0 0 85 85" style="enable-background:new 0 0 85 85;" xml:space="preserve">
<style type="text/css">
	.st0{display:none;}
	.st1{display:inline;}
	.st2{display:inline;fill:#FFFFFF;}
	.st3{fill:#FFFFFF;}
	.st4{fill:#73489D;}
	.st5{fill:#1C2053;}
	.st6{fill:#5DBA47;}
	.st7{fill:none;stroke:#000000;stroke-linecap:round;stroke-linejoin:round;stroke-miterlimit:10;}
	.st8{fill:#815DA7;}
	.st9{fill:none;stroke:#000000;stroke-width:0.5;stroke-linecap:round;stroke-linejoin:round;}
	.st10{fill:#FFFFFF;stroke:#FFFFFF;stroke-width:0.8736;stroke-miterlimit:10;}
	.st11{fill:none;}
	.st12{fill:#1D75BC;}
	.st13{fill:#5DBA47;stroke:#FFFFFF;stroke-width:0.75;stroke-miterlimit:10;}
	.st14{fill:#AF282F;}
	.st15{fill:#1D76BB;}
	.st16{fill:#74499D;}
	.st17{fill:#5DB847;}
	.st18{fill:#B0282E;}
	.st19{fill:none;stroke:#000000;stroke-miterlimit:10;}
	.st20{fill:none;stroke:#AF282F;stroke-miterlimit:10;}
</style>
<g id="Layer_4">
</g>
<g id="Layer_8">
</g>
<g id="Layer_1">
</g>
<g id="Layer_2">
</g>
<g id="shadow">
</g>
<g id="shadow_copy">
</g>
<g id="Layer_3">
	<g>
		<circle class="st3" cx="42.5" cy="42.5" r="42.1"/>
		<path class="st3" d="M42.5,85C19.1,85,0,66,0,42.5C0,19.1,19.1,0,42.5,0S85,19.1,85,42.5C85,66,66,85,42.5,85z M42.5,0.9
			c-23,0-41.6,18.7-41.6,41.6s18.7,41.6,41.6,41.6s41.6-18.7,41.6-41.6S65.5,0.9,42.5,0.9z"/>
	</g>
</g>
<g id="extra_faces">
	<g id="isZkPM.tif_1_">
		<g>
			<g>
				<path class="st14" d="M56.1,14c1.7,0.9,3.5,1.6,5,2.8c3,2.4,4.4,5.9,4.8,9.6c0.4,2.8-1,5.1-3.5,6.4c-4.9,2.5-9.7,5.1-14.6,7.5
					c-0.8,0.4-1.9,0.6-2.9,0.4c-3.5-0.5-5.8-2.8-7.6-5.6C35.7,32.7,34.6,30,35,27c0.3-2,1.2-3.5,3-4.5c5.2-2.8,10.3-5.6,15.4-8.5
					C54.4,14,55.2,14,56.1,14z M53.2,21.1c0,3.3,2.9,7.2,5.9,8.2c2.3,0.7,3.9-0.4,4.1-2.8c0.2-3.2-2.3-7.1-5.4-8.4
					C55.1,17,53.1,18.3,53.2,21.1z"/>
				<path class="st14" d="M45.6,41.3c-0.3,0-0.5,0-0.8-0.1c-3.1-0.5-5.7-2.3-7.9-5.8c-1.3-2-2.9-5-2.4-8.6c0.3-2.3,1.4-3.8,3.3-4.9
					c3.7-2,7.4-4,11-6l4.5-2.5h2.9l0.1,0.1c0.5,0.3,1,0.5,1.6,0.8c1.2,0.6,2.4,1.2,3.5,2c2.8,2.3,4.4,5.5,5,10c0.4,3-1,5.5-3.7,6.9
					l-3.2,1.7c-3.7,1.9-7.6,4-11.4,5.9C47.3,41.2,46.4,41.3,45.6,41.3z M53.6,14.5l-4.3,2.4c-3.6,2-7.4,4.1-11,6
					c-1.6,0.9-2.5,2.2-2.8,4.1c-0.3,2.5,0.3,5,2.2,7.9c2.1,3.2,4.4,4.9,7.2,5.4c0.8,0.1,1.8,0,2.6-0.4C51.4,38,55.3,36,59,34.1
					l3.2-1.7c2.4-1.2,3.5-3.3,3.2-5.9c-0.5-4.2-2-7.2-4.6-9.3c-1-0.8-2.1-1.3-3.3-1.9c-0.5-0.3-1-0.5-1.5-0.8H53.6z M60.4,30
					c-0.4,0-0.9-0.1-1.4-0.2c-3.3-1-6.3-5.1-6.3-8.6l0,0c0-1.5,0.5-2.8,1.5-3.4c1-0.7,2.3-0.7,3.8-0.1c3.3,1.4,5.9,5.5,5.7,8.9
					c-0.1,1.3-0.6,2.3-1.4,2.9C61.7,29.8,61.1,30,60.4,30z M56,18.2c-0.5,0-0.9,0.1-1.2,0.3c-0.7,0.5-1.1,1.4-1.1,2.6l0,0
					c0,3.1,2.7,6.8,5.6,7.7c1,0.3,1.8,0.2,2.4-0.2c0.6-0.4,0.9-1.2,1-2.2c0.2-3-2.2-6.7-5.1-7.9C57,18.3,56.4,18.2,56,18.2z"/>
			</g>
			<g>
				<path class="st12" d="M32.1,75.6c-1-0.4-1.9-0.9-3-1.3c0.2-0.5,0.3-0.9,0.5-1.4c2.6-7,5.3-14,7.9-21c0.2-0.6,0.2-1.3,0-1.9
					c-0.8-2.3-0.1-4.7,1.8-6.1c1.9-1.4,4.6-1.3,6.5,0.3c1.8,1.6,2.4,4.2,1.2,6.2c-0.6,1-0.5,1.7-0.1,2.7c2.5,6.6,5,13.2,7.5,19.9
					c0.1,0.4,0.3,0.7,0.4,1.2c-1.1,0.5-2.3,1-3.4,1.5c-0.3,0-0.6,0-1,0c-2-5.4-4-10.7-6.1-16.1c0,0-0.1,0-0.4-0.1
					c0,5.4,0,10.6,0,15.9c-1.6,0-3,0-4.6,0c0-5.2,0-10.3,0-15.4c-0.3,0.2-0.4,0.3-0.5,0.5c-1.8,4.8-3.6,9.6-5.4,14.4
					c-0.1,0.3-0.1,0.5-0.2,0.8C33,75.6,32.6,75.6,32.1,75.6z"/>
				<path class="st12" d="M51.7,76.1h-1.4L49.4,74c-1.6-4.2-3.2-8.4-4.8-12.7v14.5h-5.6V61.9c-1.6,4.3-3.3,8.7-4.9,13
					c0,0.1-0.1,0.3-0.1,0.4c0,0.1,0,0.2,0,0.3l-0.1,0.4l-2.1,0l-3.4-1.5l0.3-0.9c0.1-0.3,0.2-0.6,0.3-0.9l1.9-5c2-5.3,4-10.6,6-16
					c0.2-0.5,0.2-1.1,0-1.6c-0.9-2.5,0-5.2,2-6.7c2.1-1.5,5.1-1.4,7.1,0.3c2,1.8,2.6,4.6,1.3,6.8c-0.5,0.8-0.4,1.4-0.1,2.2
					c2,5.1,3.9,10.2,5.8,15.3l2.3,6.2L51.7,76.1z M50.9,75.1h0.5l2.8-1.2l-2-5.4c-1.9-5.1-3.8-10.2-5.8-15.3c-0.4-1.1-0.5-2,0.1-3.1
					c1-1.8,0.5-4.1-1.1-5.6c-1.6-1.4-4.1-1.5-5.8-0.3c-1.7,1.3-2.4,3.4-1.7,5.5c0.2,0.7,0.2,1.6,0,2.2c-2,5.3-4,10.7-6,16L30,73
					c-0.1,0.3-0.2,0.6-0.3,0.9l0,0l2.5,1.1h0.9c0-0.2,0.1-0.3,0.1-0.5c1.8-4.8,3.6-9.6,5.4-14.4c0.1-0.3,0.3-0.5,0.7-0.8l0.7-0.4
					v15.8h3.6V58.7l0.7,0.2c0.1,0,0.2,0,0.2,0.1c0.1,0,0.4,0.1,0.5,0.4c1.8,4.8,3.6,9.5,5.4,14.3L50.9,75.1z"/>
			</g>
			<g>
				<path class="st14" d="M19.1,40.7c0.5-1.7,2.2-2.1,3.3-3.1c0.7,1.4,1.2,2.9,2,4.1c0.8,1.2,1.7,2.3,2.7,3.6c-1,0.5-2,1-3,1.5
					c-0.3,0.1-0.8,0-1.1-0.2c-2-0.9-3.3-2.4-3.9-4.5C19.1,41.7,19.1,41.2,19.1,40.7z"/>
				<path class="st14" d="M23.9,47.4c-0.3,0-0.7-0.1-1.1-0.3c-2.1-0.9-3.5-2.6-4.2-4.8l0-0.1l0-1.6c0.4-1.4,1.4-2,2.3-2.5
					c0.4-0.2,0.8-0.5,1.1-0.8l0.5-0.4l0.3,0.6c0.2,0.5,0.4,0.9,0.6,1.3c0.4,1,0.8,1.9,1.4,2.7c0.5,0.8,1.1,1.6,1.8,2.4
					c0.3,0.4,0.6,0.8,0.9,1.2l0.4,0.5l-0.5,0.3c-0.3,0.1-0.6,0.3-0.8,0.4c-0.7,0.4-1.4,0.7-2.2,1.1C24.2,47.4,24,47.4,23.9,47.4z
					 M19.6,42.1c0.6,2,1.8,3.4,3.6,4.2c0.5,0.2,0.7,0.2,0.7,0.2c0.7-0.3,1.4-0.6,2.1-1c0.1,0,0.2-0.1,0.3-0.1
					c-0.2-0.2-0.4-0.5-0.5-0.7c-0.7-0.8-1.3-1.6-1.8-2.5c-0.5-0.9-1-1.9-1.4-2.9c-0.1-0.3-0.2-0.5-0.3-0.8c-0.2,0.2-0.5,0.3-0.7,0.5
					c-0.8,0.5-1.6,1-1.9,1.9V42.1z"/>
			</g>
			<g>
				<path class="st12" d="M32.4,29.6c1.4,4.4,3,8.5,6.7,11.5c-0.7,0.4-1.3,0.8-2,1.2c-1.1,0.6-2.2,1.1-3.2,1.8
					c-0.9,0.6-1.7,0.6-2.7,0.2c-4.9-1.9-6.1-6.2-5.8-10.1c0-0.2,0.2-0.6,0.4-0.7C28,32.2,30.2,30.9,32.4,29.6z"/>
				<path class="st12" d="M32.5,45.1c-0.5,0-1-0.2-1.5-0.3c-4.3-1.7-6.5-5.5-6.1-10.6c0-0.4,0.2-0.9,0.6-1.1c1.7-1,3.4-2,5.2-3
					l2-1.1l0.2,0.6c1.2,4,2.8,8.2,6.6,11.3l0.6,0.5L38.8,42c-0.5,0.3-0.9,0.5-1.3,0.8c-0.4,0.2-0.8,0.4-1.1,0.6
					c-0.7,0.4-1.4,0.7-2.1,1.2C33.6,44.9,33.1,45.1,32.5,45.1z M32.2,30.4l-0.9,0.5c-1.8,1-3.5,2-5.2,3c0,0-0.1,0.2-0.1,0.3
					c-0.2,3.3,0.5,7.7,5.5,9.6c0.9,0.4,1.6,0.3,2.2-0.1c0.7-0.5,1.4-0.9,2.2-1.2c0.4-0.2,0.7-0.4,1.1-0.6c0.4-0.2,0.9-0.5,1.3-0.8
					l0,0C34.9,38.1,33.3,34.2,32.2,30.4z"/>
			</g>
		</g>
	</g>
</g>
</svg>
