<?xml version="1.0" encoding="utf-8"?>
<!-- Generator: Adobe Illustrator 21.0.0, SVG Export Plug-In . SVG Version: 6.00 Build 0)  -->
<svg version="1.1" xmlns="http://www.w3.org/2000/svg" xmlns:xlink="http://www.w3.org/1999/xlink" x="0px" y="0px"
	 viewBox="0 0 91.2 84.2" style="enable-background:new 0 0 91.2 84.2;" xml:space="preserve">
<style type="text/css">
	.st0{display:none;}
	.st1{display:inline;}
	.st2{display:inline;fill:#FFFFFF;}
	.st3{fill:#FFFFFF;}
	.st4{fill:#73489D;}
	.st5{fill:#1C2053;}
	.st6{fill:#5DBA47;}
	.st7{fill:none;stroke:#000000;stroke-linecap:round;stroke-linejoin:round;stroke-miterlimit:10;}
	.st8{fill:#815DA7;}
	.st9{fill:none;stroke:#000000;stroke-width:0.5;stroke-linecap:round;stroke-linejoin:round;}
	.st10{fill:#FFFFFF;stroke:#FFFFFF;stroke-width:0.8736;stroke-miterlimit:10;}
	.st11{fill:none;}
	.st12{fill:#1D75BC;}
	.st13{fill:#5DBA47;stroke:#FFFFFF;stroke-width:0.75;stroke-miterlimit:10;}
	.st14{fill:#AF282F;}
	.st15{fill:#1D76BB;}
	.st16{fill:#74499D;}
	.st17{fill:#5DB847;}
	.st18{fill:#B0282E;}
	.st19{fill:none;stroke:#000000;stroke-miterlimit:10;}
	.st20{fill:none;stroke:#AF282F;stroke-miterlimit:10;}
</style>
<g id="Layer_4">
</g>
<g id="Layer_8">
</g>
<g id="Layer_1">
</g>
<g id="Layer_2">
</g>
<g id="shadow">
</g>
<g id="shadow_copy">
</g>
<g id="Layer_3">
	<g>
		<g>
			<g>
				<path class="st3" d="M56.8,59l26.3-35.4C76.2,9.6,61.9,0,45.2,0C22,0,3.2,18.8,3.2,42.1c0,7.7,2.1,14.9,5.7,21.1l19.1-25.6
					L56.8,59z"/>
			</g>
			<g>
				<path class="st3" d="M45.2,84.2c23.2,0,42.1-18.8,42.1-42.1c0-6.6-1.5-12.9-4.3-18.5L56.8,59L27.9,37.5L8.8,63.2
					C16.1,75.7,29.7,84.2,45.2,84.2z"/>
			</g>
		</g>
		<g id="CiqzEQ.tif_31_">
			<g>
				<g>
					<path class="st8" d="M53.2,18.9c0.6,0.1,1.1,0.2,1.7,0.3c0.1,0.1,0.2,0.1,0.3,0.1c3.4,0.8,6.2,2.6,8.5,5.2
						c0.6,0.7,1.1,1.4,1.7,2.2c0.1-0.1,0.2-0.2,0.3-0.3c2.6-2.1,5.7-3.3,9-3.6c1-0.1,1.9,0,2.9,0c0.6,0.1,1.1,0.2,1.7,0.3
						c0.5,0.1,0.9,0.3,1.4,0.4c5.9,1.8,10,6.9,10.4,13.1c0.1,0.7,0.1,1.5,0.1,2.2c-0.2,1-0.3,1.9-0.5,2.9c-0.4,1-0.7,2-1.1,3
						c-1.5,3.4-3.9,6.2-6.7,8.7c-3.4,3.1-7.1,5.7-10.9,8.3c-4.5,3.1-9.2,5.8-13.5,9.1c0,0-0.1,0-0.3,0.1c-0.1-0.1-0.1-0.3-0.3-0.5
						c-1-1.3-1.9-2.7-2.9-3.9c-2.5-3.2-5.1-6.2-7.6-9.4c-2.9-3.6-5.6-7.4-7.7-11.5c-1.6-3.1-2.9-6.3-3.1-9.8c-0.1-0.9,0-1.8-0.1-2.7
						c0.2-1,0.3-1.9,0.5-2.9c0.1-0.4,0.3-0.8,0.4-1.1c1.8-5.6,7.2-9.8,13-10.1C51.4,18.9,52.3,18.9,53.2,18.9z"/>
				</g>
			</g>
		</g>
		<g>
			<path class="st5" d="M60.5,37.9C60.4,37.9,60.4,37.9,60.5,37.9c-0.3,0-0.5-0.3-0.5-0.6c0.3-2.1-1.2-4.1-3.3-4.5
				c-2.1-0.3-4.1,1.1-4.5,3.2c0,0.3-0.3,0.5-0.6,0.4c-0.3,0-0.5-0.3-0.4-0.6c0.5-2.6,3-4.5,5.6-4c2.7,0.4,4.5,2.9,4.1,5.6
				C60.9,37.7,60.7,37.9,60.5,37.9z"/>
		</g>
		<g>
			<path class="st5" d="M61.7,57.9c-0.4,0-0.9,0-1.3-0.1c-2.2-0.3-4.1-1.5-5.4-3.3c-1.3-1.8-1.8-4-1.4-6.2c0-0.3,0.3-0.4,0.6-0.4
				l15.2,2.4c0.3,0,0.5,0.3,0.4,0.6c-0.3,2.2-1.5,4.1-3.2,5.4C65.1,57.4,63.4,57.9,61.7,57.9z M54.5,49c-0.2,1.7,0.3,3.5,1.3,4.9
				c1.1,1.6,2.8,2.6,4.7,2.9c1.9,0.3,3.8-0.2,5.4-1.3c1.4-1.1,2.4-2.6,2.8-4.3L54.5,49z"/>
		</g>
		<g>
			<path class="st5" d="M75.7,39.4C75.6,39.4,75.6,39.4,75.7,39.4c-0.3,0-0.5-0.3-0.5-0.6c0.3-2.1-1.2-4.1-3.3-4.5
				c-2.1-0.3-4.1,1.1-4.5,3.2c0,0.3-0.3,0.5-0.6,0.4c-0.3,0-0.5-0.3-0.4-0.6c0.5-2.6,3-4.5,5.6-4c2.7,0.4,4.5,2.9,4.1,5.6
				C76.1,39.2,75.9,39.4,75.7,39.4z"/>
		</g>
		<g id="dm2XZz.tif_6_">
			<g>
				<g>
					<path class="st6" d="M0,44.8c0.4,4.5,1.6,8,3.5,11.2c2.7,4.9,6.3,9.1,11.1,12.1c2.6,1.6,5.4,2.7,8.5,2.7c1.3,0,2.4-0.4,3.2-1.5
						c0.4-0.6,1-0.6,1.6-0.4c0.2,0,0.3,0.1,0.5,0.2c2.2,1.6,4.3,1.1,6.5,0c2.3-1.2,4.2-3.1,5.7-5.1c3.9-5.2,6.5-11,7.3-17.5
						c0.6-4.7-0.1-9.2-2.6-13.3c-2.4-3.9-6-5.7-10.5-5.8c-3.5-0.1-6.8,0.8-10.1,2c-0.3,0.1-0.7,0.2-1,0.1c-3.1-0.4-6.1-0.6-9.2-0.3
						C11,29.5,7.8,30.3,5,32.4c-2.9,2.2-4.3,5.2-4.8,8.7C0,42.6,0,44.1,0,44.8z"/>
				</g>
				<g>
					<path class="st6" d="M22.4,27.7c0.5,0.1,1.2,0.2,1.9,0.3c0.2,0,0.4-0.1,0.5-0.2c1.3-2.5,2.7-5.1,3.3-7.9
						c0.1-0.4,0.1-0.8,0.1-1.2c0.2-1.2-0.5-1.8-1.5-2.1c-0.7-0.2-1.4-0.3-2.3-0.4c0.2,3.2,0.7,6.3-0.8,9.3c-0.1-0.2-0.1-0.3-0.2-0.4
						c-2.7-6.5-7.4-10.2-14.5-10.7c-2.4-0.2-4.7,0.1-6.9,0.9c-1.3,0.5-1.3,0.6-0.8,1.8c2,4.8,5.7,7.5,10.8,8.2
						c2.3,0.3,4.7,0.5,7.1,0.9c1,0.2,2,0.6,2.9,1C22.1,27.1,22.2,27.4,22.4,27.7z"/>
				</g>
			</g>
		</g>
		<g>
			<path class="st5" d="M30.1,41.1c-0.2,0-0.5-0.2-0.5-0.4c-0.3-2.2,1.2-4.2,3.4-4.6c2.2-0.3,4.2,1.1,4.6,3.3c0,0.3-0.1,0.5-0.4,0.6
				c-0.3,0-0.5-0.1-0.6-0.4c-0.3-1.6-1.8-2.7-3.5-2.5c-1.6,0.3-2.8,1.8-2.5,3.4C30.7,40.8,30.5,41.1,30.1,41.1
				C30.2,41.1,30.2,41.1,30.1,41.1z"/>
		</g>
		<g>
			<path class="st5" d="M29.2,55.2c-1.4,0-2.8-0.4-3.9-1.3c-1.4-1.1-2.4-2.6-2.6-4.4c0-0.3,0.1-0.5,0.4-0.6L35.1,47
				c0.3,0,0.5,0.1,0.6,0.4c0.3,1.8-0.1,3.5-1.1,5c-1,1.5-2.6,2.4-4.3,2.7C29.9,55.1,29.5,55.2,29.2,55.2z M23.7,49.8
				c0.3,1.3,1,2.4,2.1,3.2c1.2,0.9,2.7,1.3,4.2,1c1.5-0.2,2.8-1,3.7-2.3c0.8-1.1,1.1-2.4,1-3.7L23.7,49.8z"/>
		</g>
		<g>
			<path class="st5" d="M18.1,42.3c-0.2,0-0.5-0.2-0.5-0.4c-0.3-2.2,1.2-4.2,3.4-4.6c2.2-0.3,4.2,1.1,4.6,3.3c0,0.3-0.1,0.5-0.4,0.6
				c-0.3,0.1-0.5-0.1-0.6-0.4c-0.3-1.6-1.8-2.7-3.5-2.5c-1.6,0.3-2.8,1.8-2.5,3.4C18.6,42,18.4,42.3,18.1,42.3
				C18.1,42.3,18.1,42.3,18.1,42.3z"/>
		</g>
	</g>
</g>
<g id="extra_faces">
</g>
</svg>
