<?xml version="1.0" encoding="utf-8"?>
<!-- Generator: Adobe Illustrator 21.0.0, SVG Export Plug-In . SVG Version: 6.00 Build 0)  -->
<svg version="1.1" xmlns="http://www.w3.org/2000/svg" xmlns:xlink="http://www.w3.org/1999/xlink" x="0px" y="0px"
	 viewBox="0 0 85 85" style="enable-background:new 0 0 85 85;" xml:space="preserve">
<style type="text/css">
	.st0{display:none;}
	.st1{display:inline;}
	.st2{display:inline;fill:#FFFFFF;}
	.st3{fill:#FFFFFF;}
	.st4{fill:#73489D;}
	.st5{fill:#1C2053;}
	.st6{fill:#5DBA47;}
	.st7{fill:none;stroke:#000000;stroke-linecap:round;stroke-linejoin:round;stroke-miterlimit:10;}
	.st8{fill:#815DA7;}
	.st9{fill:none;stroke:#000000;stroke-width:0.5;stroke-linecap:round;stroke-linejoin:round;}
	.st10{fill:#FFFFFF;stroke:#FFFFFF;stroke-width:0.8736;stroke-miterlimit:10;}
	.st11{fill:none;}
	.st12{fill:#1D75BC;}
	.st13{fill:#5DBA47;stroke:#FFFFFF;stroke-width:0.75;stroke-miterlimit:10;}
	.st14{fill:#AF282F;}
	.st15{fill:#1D76BB;}
	.st16{fill:#74499D;}
	.st17{fill:#5DB847;}
	.st18{fill:#B0282E;}
	.st19{fill:none;stroke:#000000;stroke-miterlimit:10;}
	.st20{fill:none;stroke:#AF282F;stroke-miterlimit:10;}
</style>
<g id="Layer_4">
</g>
<g id="Layer_8">
</g>
<g id="Layer_1">
</g>
<g id="Layer_2">
</g>
<g id="shadow">
</g>
<g id="shadow_copy">
</g>
<g id="Layer_3">
</g>
<g id="extra_faces">
	<g>
		<g>
			<circle class="st3" cx="42.5" cy="42.5" r="42.1"/>
			<path class="st3" d="M42.5,85C19.1,85,0,66,0,42.5C0,19.1,19.1,0,42.5,0S85,19.1,85,42.5C85,66,66,85,42.5,85z M42.5,0.9
				c-23,0-41.6,18.7-41.6,41.6s18.7,41.6,41.6,41.6s41.6-18.7,41.6-41.6S65.5,0.9,42.5,0.9z"/>
		</g>
		<g>
			<path class="st12" d="M53.2,37.7c-1.6,0.3-4.2-2.2-5.8-1.9c-5.3-2.2-7.7,4.7-11.2,8c-6.2,5.9-8.5,13.8-9.6,22.1
				c-0.2,1.5,0.9,2.4,1.9,2.8c2.1,0.7,3.9-4.4,6.1-0.5c0.6,1,1.1-2.2,1.7-3.2c0.3,1,0.6,2.1,1,3.1c0.7,1.7,1.1-2.7,2.4-1.8
				c2.4,1.7,7.6,1.1,16.9,0.8c4.9,0.3,9.3-0.8,8.8-3.2c-0.2-1,0.4-2.1,0.7-3.2c0.1,0.2,3.5-14.2,1.6-17.1
				C65.9,40.7,60.2,36.5,53.2,37.7z"/>
			<path class="st12" d="M29,69.3c-0.2,0-0.4,0-0.6-0.1c-1.3-0.4-2.5-1.6-2.3-3.3c0.9-7,2.8-15.9,9.7-22.4c0.9-0.9,1.8-2.1,2.7-3.3
				c2.3-3.1,4.8-6.5,8.9-4.9c0.9-0.1,2,0.5,3.1,1c1,0.5,1.9,1,2.5,0.9l0,0c7.2-1.3,13.1,3,15.1,6c2,3-1.3,17-1.6,17.5l0,0
				c-0.1,0.3-0.2,0.6-0.3,1c-0.2,0.7-0.5,1.4-0.4,1.9c0.1,0.7,0,1.4-0.5,2c-1.2,1.4-4.5,2.1-8.8,1.9c-1.6,0.1-3.1,0.1-4.5,0.2
				c-6.6,0.3-10.6,0.4-12.7-1.1c-0.2,0-0.6,0.8-0.7,1.1c-0.3,0.7-0.6,1.2-1.1,1.2h0c-0.5,0-0.7-0.5-0.8-0.7
				c-0.2-0.6-0.4-1.2-0.6-1.7c0,0.1,0,0.1-0.1,0.2c-0.4,1.3-0.7,2.1-1.3,2.2c-0.2,0-0.5,0-0.7-0.5c-0.4-0.7-0.8-1.1-1.2-1.2
				c-0.5-0.1-1.1,0.4-1.8,0.9C30.6,68.7,29.8,69.3,29,69.3z M45.4,35.9c-2.5,0-4.2,2.4-6.1,4.9c-0.9,1.2-1.8,2.5-2.8,3.4
				C29.9,50.5,28,59.2,27.1,66c-0.2,1.2,0.8,2,1.6,2.2c0.6,0.2,1.2-0.3,1.9-0.9c0.8-0.6,1.6-1.3,2.6-1.1c0.6,0.1,1.1,0.6,1.6,1.3
				c0.1-0.3,0.3-0.8,0.4-1.2c0.2-0.7,0.4-1.3,0.6-1.7l0.5-1l0.4,1.1c0.1,0.3,0.2,0.6,0.3,1c0.2,0.6,0.4,1.2,0.6,1.8
				c0.1-0.1,0.1-0.2,0.2-0.3c0.3-0.7,0.7-1.5,1.3-1.6c0.2-0.1,0.5-0.1,0.9,0.2c1.8,1.3,5.7,1.2,12.1,0.9c1.4-0.1,2.9-0.1,4.5-0.2
				c3.9,0.2,7-0.4,8-1.5c0.3-0.3,0.4-0.7,0.3-1.1c-0.2-0.8,0.1-1.6,0.4-2.4c0.1-0.3,0.2-0.7,0.3-1l0.3-1.1l0.1,0.1
				c0.8-3.2,2.8-13.4,1.4-15.6C65.5,41,60,37,53.3,38.2c-1,0.2-2-0.4-3.2-1c-1-0.5-2-1-2.6-0.9l-0.2,0l-0.1-0.1
				C46.6,36,46,35.9,45.4,35.9z"/>
		</g>
		<g>
			<path class="st12" d="M51.8,36.8C46,36.8,41,32,40.8,26.3c-0.2-5.8,5.4-11.4,11.3-11.3c5.4,0.1,10.8,5.3,11,10.7
				C63.3,31.7,58,36.9,51.8,36.8z"/>
			<path class="st12" d="M51.9,37.3c0,0-0.1,0-0.1,0l0,0c-6.2-0.1-11.3-5-11.5-11c-0.1-2.9,1.2-5.8,3.5-8.2c2.3-2.4,5.4-3.7,8.3-3.6
				c5.7,0.1,11.3,5.5,11.5,11.2c0.1,2.9-1,5.7-3.2,8C58.2,36,55.1,37.3,51.9,37.3z M51.8,36.3c2.9,0.1,5.8-1.2,7.9-3.3
				c2-2,3-4.6,2.9-7.2c-0.2-5.2-5.3-10.2-10.5-10.2c-2.7,0-5.4,1.2-7.6,3.3c-2.1,2.1-3.3,4.8-3.2,7.4C41.5,31.8,46.2,36.3,51.8,36.3
				L51.8,36.3z"/>
		</g>
		<g>
			<path d="M51.9,31.5C51.9,31.5,51.9,31.5,51.9,31.5c-0.9,0-1.8-0.4-2.4-1c-0.6-0.6-0.9-1.5-0.9-2.4c0-0.3,0.2-0.5,0.5-0.5h0
				l5.6,0.1c0.3,0,0.5,0.2,0.5,0.5c0,0.9-0.4,1.7-1,2.4C53.6,31.2,52.8,31.5,51.9,31.5z M49.7,28.6c0.1,0.4,0.3,0.8,0.6,1.2
				c0.4,0.5,1,0.7,1.6,0.7c0.6,0,1.2-0.2,1.7-0.7c0.3-0.3,0.5-0.7,0.6-1.2L49.7,28.6z"/>
		</g>
		<g>
			<path d="M55.3,25.2c-0.3,0-0.5-0.2-0.5-0.5c0-0.6-0.5-1.1-1.1-1.1c0,0,0,0,0,0c-0.6,0-1.1,0.5-1.1,1.1c0,0.3-0.2,0.5-0.5,0.5
				c-0.3,0-0.5-0.2-0.5-0.5c0-1.2,1-2.1,2.2-2.1c1.2,0,2.1,1,2.1,2.1C55.8,25,55.6,25.2,55.3,25.2z"/>
		</g>
		<g>
			<g>
				<path class="st5" d="M49,25.1c-0.3,0-0.5-0.2-0.5-0.5c0-0.6-0.5-1.1-1.1-1.1c-0.7,0-1.1,0.5-1.1,1.1c0,0.3-0.2,0.5-0.5,0.5
					c-0.3,0-0.5-0.2-0.5-0.5c0-1.2,1-2.1,2.2-2.1c1.2,0,2.1,1,2.1,2.1C49.5,24.9,49.3,25.1,49,25.1z"/>
			</g>
			<g>
				<path class="st5" d="M51.8,31.5C51.8,31.5,51.8,31.5,51.8,31.5c-0.9,0-1.8-0.4-2.4-1c-0.6-0.6-0.9-1.5-0.9-2.4
					c0-0.3,0.2-0.5,0.5-0.5c0,0,0,0,0,0l5.6,0.1c0.3,0,0.5,0.2,0.5,0.5c0,0.9-0.4,1.7-1,2.4C53.5,31.2,52.7,31.5,51.8,31.5z
					 M49.6,28.6c0.1,0.4,0.3,0.8,0.6,1.2c0.4,0.5,1,0.7,1.6,0.7c0.6,0,1.2-0.2,1.7-0.7c0.3-0.3,0.5-0.7,0.6-1.2L49.6,28.6z"/>
			</g>
			<g>
				<path class="st5" d="M55.2,25.2c-0.3,0-0.5-0.2-0.5-0.5c0-0.6-0.5-1.1-1.1-1.1h0c-0.6,0-1.1,0.5-1.1,1.1c0,0.3-0.2,0.5-0.5,0.5
					h0c-0.3,0-0.5-0.2-0.5-0.5c0-1.2,1-2,2.2-2.1c1.2,0,2.1,1,2.1,2.1C55.7,25,55.5,25.2,55.2,25.2z"/>
			</g>
		</g>
		<g>
			<path class="st6" d="M54.1,60.4c-0.9-5.7-5.9-11.1-11.2-15.3h0c1.7-1.7,2.8-4.1,2.8-6.7c0-5.3-4.3-9.6-9.6-9.6
				c-5.3,0-9.6,4.3-9.6,9.6c0,3,1.4,5.7,3.6,7.5l-0.4,0C22,49.9,16.5,58.4,15.5,64.2c-0.2,1,0.8,2.9,1.7,3.1
				c1.8,0.5,4.4,1.2,5.2-1.6c0.2-0.8,1-1.5,1.5-2.3c0.3,0.7,0.5,1.4,0.9,2.1c0.6,1.2,1,2.7,2.1,3.3H45c1.1-0.6,1.5-2.2,2.1-3.3
				c0.4-0.7,0.6-1.4,0.9-2.1c0.5,0.7,1.3-1.5,1.6-0.7c0.8,2.7-0.1-1.7,1.7-2.2C52.2,60.4,54.3,61.4,54.1,60.4z"/>
			<path class="st6" d="M45.2,69.4H26.7l-0.1-0.1c-0.9-0.5-1.4-1.5-1.8-2.5c-0.1-0.3-0.3-0.7-0.5-1c-0.3-0.5-0.4-1-0.6-1.4
				c0,0,0,0-0.1,0.1c-0.4,0.5-0.7,0.9-0.9,1.4c-0.9,3.1-3.9,2.3-5.7,1.9c-1.2-0.3-2.2-2.4-2-3.6c0.9-5.8,6.5-14.3,14.2-18.4
				c-2-1.9-3.2-4.5-3.2-7.3c0-5.5,4.5-10,10-10c5.5,0,10,4.5,10,10c0,2.5-0.9,4.9-2.6,6.7c6.5,5.3,10.2,10.4,10.9,15.3
				c0.1,0.4-0.1,0.6-0.2,0.7c-0.4,0.4-1,0.2-1.7,0.1c-0.4-0.1-0.9-0.2-1.2-0.1c-0.7,0.2-0.9,1.5-1,2.2c-0.1,0.5-0.1,0.9-0.5,0.9
				c-0.4,0-0.5-0.2-0.7-0.8c-0.3,0.3-0.6,0.7-1,0.7c0,0,0,0,0,0c0,0.1-0.1,0.2-0.1,0.2c-0.2,0.5-0.4,1-0.7,1.5
				c-0.2,0.3-0.3,0.6-0.5,1c-0.4,1-0.9,2-1.8,2.5L45.2,69.4z M27,68.5h18c0.6-0.4,1-1.2,1.3-2.1c0.2-0.4,0.3-0.7,0.5-1
				c0.2-0.4,0.4-0.9,0.6-1.4c0.1-0.2,0.2-0.5,0.3-0.7l0.3-0.8l0.4,0.6c0.1-0.1,0.2-0.2,0.3-0.3c0.3-0.3,0.5-0.7,0.9-0.6
				c0,0,0.1,0,0.2,0.1c0.2-0.9,0.5-1.8,1.5-2.1c0.5-0.1,1,0,1.6,0.1c0.3,0.1,0.7,0.1,0.9,0.1c-0.8-4.7-4.5-9.7-11-15l-0.4-0.3
				l0.3-0.3c1.7-1.7,2.6-4,2.6-6.4c0-5-4.1-9.1-9.1-9.1S27,33.3,27,38.3c0,2.8,1.3,5.4,3.5,7.2l0.9,0.7l-1.5,0.1
				c-7.6,4-13,12.3-13.9,17.9c-0.1,0.8,0.7,2.5,1.3,2.6c2.2,0.6,4.1,0.9,4.6-1.3c0.2-0.6,0.6-1.2,1-1.7c0.2-0.2,0.4-0.4,0.5-0.7
				l0.5-0.7l0.3,0.8c0.1,0.2,0.2,0.5,0.3,0.7c0.2,0.5,0.4,1,0.6,1.4c0.2,0.3,0.3,0.7,0.5,1C26,67.3,26.3,68.1,27,68.5z"/>
		</g>
		<g>
			<path class="st5" d="M36.9,38.7c-0.3,0-0.5-0.2-0.5-0.5c0-1.1,0.9-1.9,1.9-2c1.1,0,2,0.8,2,1.9c0,0.3-0.2,0.5-0.5,0.5
				c-0.3,0-0.5-0.2-0.5-0.5c0-0.5-0.4-0.9-1-0.9c-0.5,0-0.9,0.4-0.9,1C37.4,38.5,37.2,38.7,36.9,38.7z"/>
		</g>
		<g>
			<path class="st5" d="M31.7,38.7c-0.3,0-0.5-0.2-0.5-0.5c0-1.1,0.9-1.9,1.9-2c0,0,0,0,0,0c1,0,1.9,0.8,2,1.9
				c0,0.3-0.2,0.5-0.5,0.5h0c-0.3,0-0.5-0.2-0.5-0.5c0-0.5-0.5-0.9-1-0.9c-0.5,0-0.9,0.4-0.9,1C32.2,38.5,32,38.7,31.7,38.7z"/>
		</g>
		<g>
			<g>
				<path class="st8" d="M15.9,49.6c0,0,12.4,1.2,16,5.8v14.8c0,0-9.4-6-14.1-6L15.9,49.6z"/>
			</g>
			<g>
				<path class="st8" d="M49.7,49.6c0,0-12.4,1.2-16,5.8v14.8c0,0,9.4-6,14.1-6L49.7,49.6z"/>
			</g>
			<g>
				<rect x="31.9" y="55.2" class="st12" width="1.8" height="14.9"/>
			</g>
		</g>
		<g>
			<path class="st12" d="M66.7,48.9c-0.8,3.5-14.4,19.9-20.2,15.7c-0.9-0.7-1.8-3.3-1.4-4.7c1.3-4.9,6.6-10,9.2-14.2"/>
			<path class="st5" d="M48.7,65.7c-1,0-1.8-0.3-2.5-0.8c-1.1-0.8-2-3.7-1.6-5.3c0.9-3.3,3.5-6.6,6-9.8c1.2-1.6,2.4-3.1,3.3-4.5
				c0.1-0.2,0.5-0.3,0.7-0.2c0.2,0.1,0.3,0.5,0.2,0.7c-0.9,1.4-2.1,3-3.3,4.6c-2.4,3.1-5,6.4-5.8,9.5c-0.3,1.3,0.4,3.6,1.2,4.2
				c1,0.7,2.4,0.8,4.1,0.2c6.4-2.3,14.8-13.2,15.4-15.5c0.1-0.3,0.3-0.4,0.6-0.4c0.3,0.1,0.4,0.3,0.4,0.6c-0.7,2.9-9.5,13.9-16,16.3
				C50.3,65.5,49.4,65.7,48.7,65.7z"/>
		</g>
		<g>
			<path class="st5" d="M35,44.5C35,44.5,35,44.5,35,44.5c-0.9,0-1.6-0.3-2.2-0.9c-0.6-0.6-0.9-1.4-0.8-2.2c0-0.3,0.2-0.5,0.5-0.5
				c0,0,0,0,0,0l5,0.1c0.3,0,0.5,0.2,0.5,0.5c0,0.8-0.3,1.6-0.9,2.2C36.6,44.2,35.8,44.5,35,44.5z M33,41.9c0.1,0.4,0.3,0.7,0.5,1
				c0.4,0.4,0.9,0.6,1.4,0.6c0,0,0,0,0,0c0.5,0,1-0.2,1.4-0.6c0.3-0.3,0.5-0.6,0.5-0.9L33,41.9z"/>
		</g>
	</g>
</g>
</svg>
