<?xml version="1.0" encoding="utf-8"?>
<!-- Generator: Adobe Illustrator 21.0.0, SVG Export Plug-In . SVG Version: 6.00 Build 0)  -->
<svg version="1.1" xmlns="http://www.w3.org/2000/svg" xmlns:xlink="http://www.w3.org/1999/xlink" x="0px" y="0px"
	 viewBox="0 0 84.2 84.2" style="enable-background:new 0 0 84.2 84.2;" xml:space="preserve">
<style type="text/css">
	.st0{display:none;}
	.st1{display:inline;}
	.st2{display:inline;fill:#FFFFFF;}
	.st3{fill:#FFFFFF;}
	.st4{fill:#73489D;}
	.st5{fill:#1C2053;}
	.st6{fill:#5DBA47;}
	.st7{fill:none;stroke:#000000;stroke-linecap:round;stroke-linejoin:round;stroke-miterlimit:10;}
	.st8{fill:#815DA7;}
	.st9{fill:none;stroke:#000000;stroke-width:0.5;stroke-linecap:round;stroke-linejoin:round;}
	.st10{fill:#FFFFFF;stroke:#FFFFFF;stroke-width:0.8736;stroke-miterlimit:10;}
	.st11{fill:none;}
	.st12{fill:#1D75BC;}
	.st13{fill:#5DBA47;stroke:#FFFFFF;stroke-width:0.75;stroke-miterlimit:10;}
	.st14{fill:#AF282F;}
	.st15{fill:#1D76BB;}
	.st16{fill:#74499D;}
	.st17{fill:#5DB847;}
	.st18{fill:#B0282E;}
	.st19{fill:none;stroke:#000000;stroke-miterlimit:10;}
	.st20{fill:none;stroke:#AF282F;stroke-miterlimit:10;}
</style>
<g id="Layer_4">
</g>
<g id="Layer_8">
</g>
<g id="Layer_1">
</g>
<g id="Layer_2">
</g>
<g id="shadow">
</g>
<g id="shadow_copy">
</g>
<g id="Layer_3">
	<g>
		<g>
			<circle class="st3" cx="42.1" cy="42.1" r="42.1"/>
		</g>
		<g>
			<circle class="st4" cx="42.1" cy="42.1" r="33.9"/>
		</g>
		<g id="bWzyAg.tif_4_">
			<g>
				<g>
					<path class="st3" d="M63.4,31.9c0.5,5.7,3.5,10.9,5.1,16.3c0.6,1.9,0.1,3.7-1.9,4.1c-3,0.7-3.5,2.5-3.2,5.1
						c0.1,1.1,0,2.2,0,3.2c-0.1,3.5-1.8,5.2-5.3,5.3c-2.2,0-4.4,0-6.7,0c0,3.8,0,11.1,0,14.7c-7.6-1.7-15-4.2-22.4-6
						c-0.6-0.1-1.3-0.4-1.3-1.1c-0.1-3.2,0.1-10.5-0.1-13.7c-0.1-1.3-0.7-2.9-1.7-3.9c-9.8-9.7-10.4-26.3-0.4-35.8
						C31.1,14.7,61.3,8.4,63.4,31.9z"/>
				</g>
			</g>
		</g>
		<g>
			<path class="st5" d="M63.5,59.2c-3.9,0-4.8-2-4.8-2.1l0.9-0.4c0,0.1,0.7,1.5,3.9,1.5V59.2z"/>
		</g>
		<g id="hc4bsG.tif_2_">
			<g>
				<g>
					<path class="st6" d="M31.5,21.4c-1.6-0.5-2.8,0-3.8,1.3c-0.2,0.3-0.8,0.5-1.1,0.7c-0.5,0.5-1,1-1.5,1.5
						c-0.3,0.4-0.5,0.9-0.8,1.2c-0.9,0.8-1.4,1.7-1,3c0.1,0.3-0.1,0.9-0.3,1.2c-1.5,2.2-2,4.7-1,7.1c0.7,1.7,2,3.1,2.5,5.1
						c0.3,1.4,1.7,1.6,3.9,1.1c0.6,1.5,0.9,3.3,2.7,4c1.8,0.7,3.2-0.2,4.6-1.6c0.3,1.3,0.6,2.4,0.8,3.5c1.2,0.4,1.8,0,2-1.2
						c0.3-1.2,0.8-2.4,1.2-3.6c0.6-1.8,1.9-2.6,3.7-2.9c0.5-0.1,0.9-0.2,1.4-0.3c2.5-0.8,3.1-1.8,2.6-4.3c1.8-0.3,3.5-0.5,5.3-0.8
						c1.9-0.4,2.5-1.1,2.6-2.9c2.5-1.1,2.9-4,0.9-6.4c-0.7-0.9-2-1.4-2.1-2.8c0-0.1-0.1-0.2-0.2-0.2c-2.4-0.8-3.8-3.9-7-3.2
						c-0.3,0.1-0.7-0.3-1-0.6c-1.1-0.9-2.2-1.3-3.6-0.9c-0.5,0.1-1.2,0-1.7-0.1c-1.5-0.5-2.9-0.7-4.3,0.2c-0.3,0.2-0.6,0.3-0.9,0.2
						C33.5,19.3,32.4,19.9,31.5,21.4z"/>
				</g>
			</g>
		</g>
		<g>
			<path class="st5" d="M32.6,29.4C32.6,29.4,32.6,29.4,32.6,29.4c-0.3,0-0.5-0.2-0.5-0.5c0-1.3,1.1-2.4,2.4-2.4
				c1.3,0,2.4,1.1,2.4,2.4c0,0.3-0.2,0.5-0.5,0.5c0,0,0,0,0,0c-0.3,0-0.5-0.2-0.5-0.5c0-0.8-0.6-1.4-1.4-1.4s-1.4,0.6-1.4,1.4
				C33.1,29.2,32.8,29.4,32.6,29.4z"/>
		</g>
		<g>
			<path class="st5" d="M37.7,37.9c-1,0-2-0.4-2.7-1.1c-0.7-0.7-1.1-1.7-1.1-2.7c0-0.3,0.2-0.5,0.5-0.5h6.6c0.3,0,0.5,0.2,0.5,0.5
				c0,1-0.4,2-1.1,2.7C39.7,37.5,38.8,37.9,37.7,37.9z M35,34.6c0.1,0.6,0.4,1.1,0.8,1.5c1.1,1.1,2.9,1.1,4,0c0.4-0.4,0.7-1,0.8-1.5
				H35z"/>
		</g>
		<g>
			<path class="st5" d="M43,29c-0.3,0-0.5-0.2-0.5-0.5c0-0.8-0.6-1.4-1.4-1.4s-1.4,0.6-1.4,1.4c0,0.3-0.2,0.5-0.5,0.5
				c-0.3,0-0.5-0.2-0.5-0.5c0-1.3,1.1-2.4,2.4-2.4c1.3,0,2.4,1.1,2.4,2.4C43.5,28.8,43.3,29,43,29C43,29,43,29,43,29z"/>
		</g>
	</g>
</g>
<g id="extra_faces">
</g>
</svg>
